<?xml version="1.0" encoding="utf-8"?>
<!-- Generator: Adobe Illustrator 27.5.0, SVG Export Plug-In . SVG Version: 6.00 Build 0)  -->
<svg version="1.1" id="Layer_1" xmlns="http://www.w3.org/2000/svg" xmlns:xlink="http://www.w3.org/1999/xlink" x="0px" y="0px"
	 viewBox="0 0 242.031 301.352" style="enable-background:new 0 0 242.031 301.352;" xml:space="preserve">
<g>
	<g>
		<g>
			<g>
				<path style="fill:#FAD6BE;" d="M158.467,208.568c-0.375-3.588-1.353-7.062-2.374-10.511c-1.037-3.503-2.147-6.993-2.898-10.573
					c-0.369-1.759-0.658-3.543-0.786-5.337c-0.133-1.876-0.051-3.731,0.099-5.603c0.622-7.789,1.671-15.543,2.679-23.289
					c0.49-3.763,1.148-7.523,1.095-11.331c-0.03-2.171-0.188-4.601-1.322-6.512c-0.452-0.761-1.072-1.374-1.879-1.694
					c-0.423,0.11-0.808,0.349-1.087,0.743c-0.064,0.091-0.219,0.064-0.219-0.059c0.001-0.705,0.07-1.413,0.199-2.107
					c0.037-0.198,0.08-0.399,0.13-0.599c0.039-1.008,0.028-2.017-0.062-3.027c-0.156-1.772-0.515-3.7-1.556-5.187
					c-0.48-0.687-1.165-1.271-2.003-1.443c-0.921-0.189-1.749,0.079-2.5,0.618c-0.088,0.063-0.173,0.124-0.257,0.184
					c0.003-0.08,0.008-0.161,0.009-0.241c0.039-1.768-0.188-3.631-1.022-5.214c-0.382-0.725-0.95-1.396-1.681-1.786
					c-0.901-0.48-1.928-0.558-2.918-0.338c-2.041,0.454-3.99,2.005-4.812,3.936c-0.064,0.152-0.109,0.298-0.144,0.445
					c-0.088-0.222-0.189-0.438-0.305-0.647c-0.896-1.619-2.925-2.123-4.547-1.265c-1.113,0.589-1.859,1.643-2.543,2.665
					c-0.973,1.451-1.927,2.914-2.841,4.404c-0.883,1.439-1.687,2.929-2.611,4.343c-0.873,1.335-1.836,2.61-2.816,3.868
					c-1.992,2.555-4.035,5.071-5.61,7.914c-1.624,2.931-3.567,5.707-4.823,8.829c-1.281,3.183-1.859,6.595-2.484,9.952
					c-0.669,3.595-1.359,7.186-1.966,10.792c-0.326,1.942-0.632,3.896-0.899,5.857c-0.069-0.013-0.139-0.016-0.199-0.004
					c-0.292,0.054-0.495,0.291-0.552,0.568c-0.169,0.819-0.438,1.614-0.593,2.439c-0.152,0.808-0.286,1.619-0.404,2.433
					c-0.232,1.599-0.415,3.206-0.545,4.817c-0.26,3.218-0.315,6.455-0.135,9.679c0.358,6.425,1.628,12.819,3.996,18.812
					c1.191,3.016,2.649,5.93,4.379,8.673c0.217,0.345,0.439,0.686,0.664,1.024c-0.917,3.321-9.619,34.836-14.256,51.829
					c1.781,1.832,3.928,3.287,6.172,4.491c3.939,2.114,8.227,3.459,12.614,4.254c4.367,0.791,8.836,1.07,13.268,0.836
					c4.427-0.234,8.863-0.987,13.04-2.5c0.478-0.173,0.952-0.357,1.423-0.552l4.632-49.719c2.503-1.498,4.793-3.394,6.656-5.639
					c0.982-1.182,1.859-2.453,2.539-3.833c0.722-1.465,1.185-3.022,1.531-4.615C158.712,215.803,158.842,212.169,158.467,208.568z"
					/>
				<path style="fill:#FAD6BE;" d="M158.467,208.568c-0.375-3.588-1.353-7.062-2.374-10.511c-1.037-3.503-2.147-6.993-2.898-10.573
					c-0.369-1.759-0.658-3.543-0.786-5.337c-0.133-1.876-0.051-3.731,0.099-5.603c0.622-7.789,1.671-15.543,2.679-23.289
					c0.49-3.763,1.148-7.523,1.095-11.331c-0.03-2.171-0.188-4.601-1.322-6.512c-0.452-0.761-1.072-1.374-1.879-1.694
					c-0.423,0.11-0.808,0.349-1.087,0.743c-0.064,0.091-0.219,0.064-0.219-0.059c0.001-0.705,0.07-1.413,0.199-2.107
					c0.037-0.198,0.08-0.399,0.13-0.599c0.039-1.008,0.028-2.017-0.062-3.027c-0.156-1.772-0.515-3.7-1.556-5.187
					c-0.48-0.687-1.165-1.271-2.003-1.443c-0.921-0.189-1.749,0.079-2.5,0.618c-0.088,0.063-0.173,0.124-0.257,0.184
					c0.003-0.08,0.008-0.161,0.009-0.241c0.039-1.768-0.188-3.631-1.022-5.214c-0.382-0.725-0.95-1.396-1.681-1.786
					c-0.901-0.48-1.928-0.558-2.918-0.338c-2.041,0.454-3.99,2.005-4.812,3.936c-0.064,0.152-0.109,0.298-0.144,0.445
					c-0.088-0.222-0.189-0.438-0.305-0.647c-0.896-1.619-2.925-2.123-4.547-1.265c-1.113,0.589-1.859,1.643-2.543,2.665
					c-0.973,1.451-1.927,2.914-2.841,4.404c-0.883,1.439-1.687,2.929-2.611,4.343c-0.873,1.335-1.836,2.61-2.816,3.868
					c-1.992,2.555-4.035,5.071-5.61,7.914c-1.624,2.931-3.567,5.707-4.823,8.829c-1.281,3.183-1.859,6.595-2.484,9.952
					c-0.669,3.595-1.359,7.186-1.966,10.792c-0.326,1.942-0.632,3.896-0.899,5.857c-0.069-0.013-0.139-0.016-0.199-0.004
					c-0.292,0.054-0.495,0.291-0.552,0.568c-0.169,0.819-0.438,1.614-0.593,2.439c-0.152,0.808-0.286,1.619-0.404,2.433
					c-0.232,1.599-0.415,3.206-0.545,4.817c-0.26,3.218-0.315,6.455-0.135,9.679c0.358,6.425,1.628,12.819,3.996,18.812
					c1.191,3.016,2.649,5.93,4.379,8.673c0.217,0.345,0.439,0.686,0.664,1.024c-0.917,3.321-9.619,34.836-14.256,51.829
					c1.781,1.832,3.928,3.287,6.172,4.491c3.939,2.114,8.227,3.459,12.614,4.254c4.367,0.791,8.836,1.07,13.268,0.836
					c4.427-0.234,8.863-0.987,13.04-2.5c0.478-0.173,0.952-0.357,1.423-0.552l4.632-49.719c2.503-1.498,4.793-3.394,6.656-5.639
					c0.982-1.182,1.859-2.453,2.539-3.833c0.722-1.465,1.185-3.022,1.531-4.615C158.712,215.803,158.842,212.169,158.467,208.568z"
					/>
				<path style="fill:#FAD6BE;" d="M97.664,278.087c0.436-1.264,0.875-2.525,1.294-3.79c0.904-2.729,1.805-5.459,2.656-8.206
					c0.87-2.808,1.71-5.624,2.574-8.434c0.835-2.715,1.691-5.41,2.357-8.173c0.652-2.703,1.213-5.427,1.878-8.127
					c0.645-2.616,1.428-5.176,2.382-7.696c0.253-0.667,0.505-1.459,1.026-1.974c0.412-0.407,0.956-0.439,1.489-0.28
					c0.412,0.123,0.802,0.323,1.176,0.533c0.478,0.268,0.954,0.534,1.411,0.836c0.431,0.285,0.848,0.588,1.26,0.9
					c-1.869-2.457-3.591-5.026-5.117-7.708c-2.436-4.281-4.233-8.818-5.411-13.601c-2.429-9.861-2.199-20.069-1.362-30.118
					c0.813-9.759,1.331-19.779,4.892-29.015c1.798-4.663,4.441-8.928,7.189-13.081c2.281-3.447,4.828-6.8,6.75-10.468
					c1.473-2.811,2.82-5.699,4.579-8.349c0.863-1.301,2.133-3.2,3.734-3.987c-0.702-0.094-1.443,0.024-2.115,0.38
					c-1.113,0.589-1.859,1.643-2.543,2.665c-0.973,1.451-1.927,2.914-2.841,4.404c-0.883,1.439-1.687,2.929-2.611,4.343
					c-0.873,1.335-1.836,2.61-2.816,3.868c-1.992,2.555-4.035,5.071-5.61,7.914c-1.624,2.931-3.567,5.707-4.823,8.829
					c-1.281,3.183-1.859,6.595-2.484,9.952c-0.669,3.595-1.359,7.186-1.966,10.792c-0.326,1.942-0.632,3.896-0.899,5.857
					c-0.069-0.013-0.139-0.016-0.199-0.004c-0.292,0.054-0.495,0.291-0.552,0.568c-0.169,0.819-0.438,1.614-0.593,2.439
					c-0.152,0.808-0.286,1.619-0.404,2.433c-0.232,1.599-0.415,3.206-0.545,4.817c-0.26,3.218-0.315,6.455-0.135,9.679
					c0.358,6.425,1.628,12.819,3.996,18.812c1.191,3.016,2.649,5.93,4.379,8.673c0.217,0.345,0.439,0.686,0.664,1.024
					c-0.917,3.321-9.619,34.836-14.256,51.829C96.572,277.141,97.108,277.627,97.664,278.087z"/>
				<path style="opacity:0.69;fill:#FAD6BE;" d="M158.467,208.568c-0.375-3.588-1.353-7.062-2.374-10.511
					c-1.037-3.503-2.147-6.993-2.898-10.573c-0.369-1.759-0.658-3.543-0.786-5.337c-0.133-1.876-0.051-3.731,0.099-5.603
					c0.622-7.789,1.671-15.543,2.679-23.289c0.317-2.437,0.704-4.873,0.924-7.322c-0.364,1.308-0.784,2.601-1.233,3.88
					c-0.389,1.109-0.802,2.211-1.218,3.31c-0.465,1.227-0.967,2.44-1.403,3.678c-0.48,1.364-0.903,2.749-1.256,4.152
					c-0.149,0.592-0.263,1.194-0.423,1.783c-0.094,0.346-0.177,0.695-0.267,1.043c-0.176,0.682-0.751,3.388-1.965,2.485
					c-0.601-0.447-0.932-1.214-1.036-1.936c-0.125-0.866-0.061-1.755,0.041-2.62c0.218-1.852,0.67-3.662,1.046-5.485
					c0.231-1.12,0.386-2.255,0.588-3.38c0.27-1.504,0.557-3.006,0.82-4.512c0.528-3.023,0.936-6.059,1.304-9.106
					c0.21-1.737,0.423-3.475,0.677-5.206c0.021-0.578,0.083-1.156,0.189-1.724c0.037-0.198,0.08-0.399,0.13-0.599
					c0.039-1.008,0.028-2.017-0.062-3.027c-0.103-1.169-0.296-2.405-0.712-3.538c-0.107,2.719-0.666,5.436-1.274,8.074
					c-0.702,3.046-1.559,6.055-2.46,9.047c-0.639,2.121-1.286,4.232-1.847,6.374c-0.775,2.961-1.472,5.943-1.991,8.96
					c-0.202,1.173-0.362,2.332-0.425,3.52c-0.059,1.116-0.101,2.235-0.241,3.344c-0.183,1.448-0.527,3.349-1.879,4.198
					c-0.66,0.415-1.209-0.011-1.509-0.627c-0.484-0.995-0.611-2.178-0.724-3.264c-0.151-1.449-0.196-2.909-0.201-4.365
					c-0.004-1.31,0.027-2.622,0.104-3.93c0.08-1.362,0.316-2.675,0.579-4.016c1.183-6.032,2.959-11.926,4.222-17.94
					c0.286-1.364,0.559-2.728,0.882-4.084c0.323-1.357,0.655-2.712,0.94-4.078c0.258-1.24,0.487-2.506,0.617-3.78
					c-0.046,0.03-0.092,0.058-0.137,0.091c-0.088,0.063-0.173,0.124-0.257,0.184c0.003-0.08,0.008-0.161,0.009-0.241
					c0.039-1.768-0.188-3.631-1.022-5.214c-0.382-0.725-0.95-1.396-1.681-1.786c-0.17-0.091-0.346-0.162-0.524-0.225
					c0.143,0.229,0.275,0.463,0.395,0.699c0.729,1.429,1.163,3.027,1.33,4.62c0.27,2.572-0.206,5.24-0.844,7.724
					c-0.333,1.295-0.728,2.573-1.137,3.846c-0.419,1.307-0.813,2.616-1.197,3.934c-1.567,5.387-3.404,10.692-4.959,16.083
					c-0.384,1.333-0.758,2.67-1.093,4.016c-0.289,1.162-0.467,2.35-0.611,3.538c-0.285,2.338-0.424,4.704-0.92,7.011
					c-0.232,1.079-0.529,2.207-1.069,3.178c-0.338,0.608-0.899,1.254-1.671,1.073c-0.861-0.202-1.48-1.128-1.926-1.82
					c-0.538-0.836-0.966-1.739-1.265-2.687c-1.241-3.929-0.305-8.21,0.981-12.001c1.321-3.896,3.198-7.559,4.733-11.368
					c1.097-2.724,2.196-5.439,3.087-8.24c1.068-3.359,1.969-6.868,2.066-10.409c0.067-2.455-0.309-5.225-2.032-7.055
					c-0.447,0.508-0.816,1.076-1.073,1.681c-0.064,0.152-0.109,0.298-0.144,0.445c-0.088-0.222-0.189-0.438-0.305-0.647
					c-0.896-1.619-2.925-2.123-4.547-1.265c-0.943,0.499-1.62,1.331-2.222,2.195c0.413-0.429,0.879-0.835,1.422-1.084
					c0.507-0.233,1.046-0.282,1.566-0.06c0.703,0.301,1.075,0.983,1.227,1.703c0.17,0.806,0.125,1.647,0.044,2.461
					c-0.101,1.011-0.23,2.02-0.434,3.016c-0.526,2.571-1.465,5.039-2.551,7.421c-1.093,2.397-2.379,4.693-3.534,7.059
					c-2.368,4.853-4.914,9.646-6.578,14.801c-0.831,2.577-1.349,5.206-1.795,7.873c-0.441,2.634-0.868,5.287-1.736,7.821
					c-0.033,0.098-0.209,0.125-0.227,0c-0.295-2.119-0.31-4.268-0.306-6.404c0.008-4.116,0.192-8.322-0.692-12.371
					c-0.409-1.873-1.073-3.71-2.169-5.296c-0.337-0.488-0.717-0.938-1.126-1.357c-0.794,1.373-1.541,2.77-2.135,4.245
					c-1.281,3.183-1.859,6.595-2.484,9.952c-0.669,3.595-1.359,7.186-1.966,10.792c-0.326,1.942-0.632,3.896-0.899,5.857
					c-0.069-0.013-0.139-0.016-0.199-0.004c-0.292,0.054-0.495,0.291-0.552,0.568c-0.169,0.819-0.438,1.614-0.593,2.439
					c-0.152,0.808-0.286,1.619-0.404,2.433c-0.232,1.599-0.415,3.206-0.545,4.817c-0.26,3.218-0.315,6.455-0.135,9.679
					c0.358,6.425,1.628,12.819,3.996,18.812c1.191,3.016,2.649,5.93,4.379,8.673c0.217,0.345,0.439,0.686,0.664,1.024
					c-0.135,0.489-0.44,1.594-0.875,3.171c2.01,3.019,5.143,5.093,8.204,6.967c3.397,2.081,7.066,4.075,9.573,7.261
					c3.229,4.103,3.387,9.549,2.951,14.537c-0.257,2.94-0.743,5.853-1.15,8.775c-0.444,3.187-0.671,6.406-0.95,9.611
					c-0.323,3.711-0.645,7.429-1.089,11.131c0.378-0.013,0.757-0.024,1.134-0.044c4.427-0.234,8.863-0.987,13.04-2.5
					c0.478-0.173,0.952-0.357,1.423-0.552l4.632-49.719c2.503-1.498,4.793-3.394,6.656-5.639c0.982-1.182,1.859-2.453,2.539-3.833
					c0.722-1.465,1.185-3.022,1.531-4.615C158.712,215.803,158.842,212.169,158.467,208.568z M154.883,210.034
					c-0.354,3.315-1.206,6.507-2.678,9.393c-0.537,1.053-1.326,2.184-2.503,2.282c-0.712,0.059-1.398-0.291-1.96-0.733
					c-2.053-1.616-3.008-4.401-4.073-6.704c-1.336-2.889-2.634-5.807-4.429-8.45c-4.419-6.506-11.095-11.103-16.078-17.143
					c-1.665-2.019-4.1-5.416-2.691-8.096c0.572-1.088,1.691-1.805,2.867-2.161c1.524-0.462,3.158-0.395,4.73-0.546
					c2.868-0.274,5.767-0.355,8.63,0.028c6.322,0.846,12.007,4.131,14.573,10.15C154.131,194.763,155.657,202.773,154.883,210.034z"
					/>
				<path style="opacity:0.69;fill:#FAD6BE;" d="M158.467,208.568c-0.031-0.295-0.067-0.589-0.106-0.883
					c-0.21,2.84-0.62,5.677-1.403,8.415c-0.829,2.898-2.106,5.744-4.154,7.991c-2.584,2.835-6.167,4.068-9.914,4.402
					c-4.109,0.366-8.333-0.094-12.302,1.254c0.976,1.756,2.879,2.599,4.493,3.665c0.82,0.542,1.6,1.159,2.202,1.943
					c0.613,0.799,1.012,1.756,1.272,2.723c0.512,1.904,0.514,3.915,0.417,5.87c-0.11,2.231-0.332,4.441-0.628,6.654
					c-0.693,5.169-1.527,10.318-2.158,15.495c-0.265,2.18-0.442,4.368-0.706,6.548c-0.228,1.884-0.491,3.764-0.672,5.654
					c-0.183,1.916-0.297,3.85-0.181,5.774c0.027,0.451,0.068,0.904,0.126,1.356c2.178-0.406,4.326-0.972,6.408-1.727
					c0.478-0.173,0.952-0.357,1.423-0.552l4.632-49.719c2.503-1.498,4.793-3.394,6.656-5.639c0.982-1.182,1.859-2.453,2.539-3.833
					c0.722-1.465,1.185-3.022,1.531-4.615C158.712,215.803,158.842,212.169,158.467,208.568z"/>
				<path style="fill:#D27A57;" d="M158.817,208.531c-0.374-3.584-1.343-7.047-2.387-10.574c-0.171-0.579-0.345-1.157-0.518-1.735
					c-0.86-2.869-1.749-5.836-2.373-8.81c-0.41-1.953-0.665-3.684-0.779-5.29c-0.144-2.023-0.023-4.029,0.099-5.55
					c0.569-7.118,1.51-14.327,2.42-21.298l0.257-1.974c0.093-0.717,0.193-1.435,0.292-2.152c0.417-3.009,0.849-6.121,0.806-9.228
					c-0.033-2.328-0.221-4.75-1.372-6.687c-0.53-0.893-1.22-1.512-2.052-1.842l-0.107-0.042l-0.111,0.029
					c-0.316,0.082-0.602,0.223-0.847,0.416c0.028-0.477,0.086-0.957,0.175-1.434c0.038-0.202,0.08-0.397,0.125-0.578l0.01-0.072
					c0.043-1.106,0.022-2.111-0.063-3.072c-0.132-1.496-0.443-3.679-1.618-5.358c-0.596-0.851-1.384-1.414-2.221-1.586
					c-0.836-0.171-1.663-0.013-2.462,0.469c-0.009-1.954-0.367-3.614-1.067-4.941c-0.321-0.608-0.898-1.438-1.827-1.933
					c-0.93-0.495-2.023-0.624-3.16-0.371c-2.065,0.46-4,1.979-4.918,3.833c-0.995-1.705-3.164-2.291-4.978-1.332
					c-1.156,0.612-1.923,1.664-2.671,2.781c-1.131,1.687-2.036,3.09-2.849,4.416c-0.353,0.576-0.699,1.167-1.033,1.74
					c-0.502,0.861-1.022,1.751-1.573,2.594c-0.904,1.383-1.923,2.719-2.799,3.844l-0.605,0.774
					c-1.773,2.265-3.606,4.606-5.035,7.186c-0.509,0.919-1.061,1.84-1.594,2.732c-1.169,1.953-2.377,3.973-3.248,6.136
					c-1.203,2.989-1.796,6.197-2.37,9.3l-0.133,0.719c-0.134,0.723-0.27,1.445-0.405,2.168c-0.529,2.825-1.077,5.746-1.562,8.63
					c-0.342,2.034-0.624,3.861-0.861,5.574c-0.394,0.093-0.701,0.415-0.787,0.834c-0.076,0.371-0.177,0.749-0.275,1.114
					c-0.115,0.432-0.234,0.878-0.319,1.332c-0.15,0.8-0.287,1.624-0.407,2.447c-0.234,1.61-0.418,3.238-0.548,4.839
					c-0.266,3.291-0.312,6.564-0.135,9.727c0.376,6.757,1.729,13.123,4.02,18.922c1.221,3.09,2.704,6.027,4.409,8.732
					c0.19,0.302,0.384,0.601,0.58,0.897c-1.325,4.797-9.63,34.88-14.158,51.473c0.051,0.054,0.101,0.109,0.152,0.162
					c0.136,0.143,0.279,0.28,0.42,0.418c4.553-16.691,13.123-47.728,14.308-52.021l0.043-0.155l-0.089-0.134
					c-0.223-0.336-0.443-0.675-0.659-1.017c-1.681-2.667-3.145-5.566-4.349-8.615c-2.263-5.729-3.599-12.021-3.972-18.702
					c-0.174-3.132-0.129-6.372,0.134-9.631c0.128-1.586,0.311-3.199,0.543-4.794c0.118-0.814,0.254-1.627,0.402-2.419
					c0.08-0.428,0.196-0.861,0.308-1.28c0.1-0.375,0.203-0.762,0.284-1.153c0.025-0.122,0.11-0.263,0.272-0.293
					c0.007-0.001,0.031-0.003,0.066,0.004l0.367,0.072l0.05-0.37c0.243-1.791,0.537-3.703,0.897-5.846
					c0.484-2.878,1.031-5.795,1.559-8.617c0.135-0.723,0.271-1.446,0.405-2.169l0.133-0.72c0.567-3.069,1.154-6.242,2.331-9.165
					c0.85-2.112,2.044-4.108,3.199-6.038c0.536-0.896,1.09-1.822,1.605-2.752c1.402-2.531,3.218-4.85,4.974-7.093l0.606-0.775
					c0.886-1.136,1.915-2.487,2.833-3.892c0.562-0.859,1.085-1.757,1.592-2.625c0.332-0.569,0.675-1.157,1.024-1.727
					c0.808-1.317,1.709-2.713,2.834-4.392c0.696-1.038,1.404-2.015,2.415-2.55c1.497-0.793,3.287-0.299,4.074,1.124
					c0.104,0.188,0.197,0.387,0.285,0.607l0.411,1.031l0.259-1.079c0.035-0.147,0.075-0.271,0.126-0.39
					c0.763-1.793,2.597-3.292,4.564-3.73c0.97-0.216,1.895-0.111,2.675,0.305c0.601,0.32,1.147,0.902,1.535,1.639
					c0.696,1.319,1.026,3.015,0.982,5.042c-0.001,0.058-0.004,0.116-0.006,0.174l-0.032,0.778l0.844-0.6
					c0.74-0.531,1.467-0.715,2.223-0.559c0.659,0.135,1.293,0.597,1.785,1.299c1.078,1.54,1.368,3.6,1.493,5.016
					c0.081,0.921,0.101,1.885,0.062,2.946c-0.046,0.185-0.088,0.381-0.126,0.584c-0.135,0.722-0.204,1.452-0.205,2.171
					c0,0.204,0.129,0.383,0.321,0.444c0.201,0.064,0.417-0.009,0.538-0.181c0.194-0.275,0.456-0.467,0.778-0.573
					c0.635,0.282,1.172,0.786,1.597,1.501c1.066,1.795,1.242,4.107,1.273,6.337c0.043,3.054-0.385,6.139-0.799,9.122
					c-0.1,0.719-0.2,1.439-0.293,2.158l-0.257,1.974c-0.911,6.979-1.854,14.197-2.424,21.333c-0.124,1.546-0.246,3.586-0.099,5.656
					c0.117,1.639,0.376,3.4,0.792,5.385c0.63,3.003,1.524,5.985,2.388,8.868c0.173,0.578,0.346,1.155,0.517,1.733
					c1.035,3.494,1.994,6.923,2.362,10.447c0.387,3.712,0.213,7.301-0.518,10.667c-0.393,1.81-0.87,3.25-1.503,4.534
					c-0.619,1.258-1.435,2.489-2.494,3.764c-1.787,2.153-3.997,4.024-6.566,5.562l-0.153,0.092l-4.666,50.077
					c0.247-0.099,0.492-0.2,0.736-0.305l4.598-49.351c2.573-1.561,4.79-3.452,6.593-5.624c1.095-1.318,1.94-2.595,2.584-3.902
					c0.659-1.337,1.154-2.829,1.559-4.696C159.034,215.981,159.212,212.317,158.817,208.531z"/>
			</g>
			<g>
				<path style="fill:#FAD6BE;" d="M104.605,220.562c2.434,3.764,5.821,7.467,10.021,9.241c4.087,1.726,8.939,1.237,12.183-1.93
					c5.287-5.162,6.452-13.343,4.796-20.294c-1.94-8.142-7.771-14.333-13.878-19.7c-4.965-4.363-6.35-9.885-5.648-16.339
					c0.465-4.276,0.928-8.555,0.97-12.86c0.021-2.11-0.06-4.222-0.282-6.321c-0.168-1.594-0.361-3.242-1.116-4.682
					c-0.73-1.394-2.155-2.355-3.733-2.458c-2.895-0.188-4.053,2.302-4.594,4.734c-0.783,3.519-2.174,6.962-3.272,10.438
					c-3.012,9.536-6.276,18.674-5.933,28.844c0.22,6.522,1.767,12.905,4.318,18.899C100.164,212.19,102.067,216.635,104.605,220.562
					z"/>
				<path style="fill:#FAD6BE;" d="M109.905,225.087c-3.873-4.809-6.678-10.433-8.795-16.21c-2.631-7.18-4.284-14.8-4.228-22.471
					c0.015-2.081,0.137-4.179,0.471-6.236c0.347-2.142,0.88-4.248,1.492-6.328c1.236-4.203,2.758-8.302,3.749-12.577
					c0.516-2.225,0.95-4.467,1.329-6.719c0.246-1.463,0.456-2.936,0.745-4.391c0.365-1.835,1.002-3.69,2.324-4.898
					c-2.224,0.344-3.188,2.542-3.667,4.696c-0.783,3.519-2.174,6.962-3.272,10.438c-3.012,9.536-6.276,18.674-5.933,28.844
					c0.22,6.522,1.767,12.905,4.318,18.899c1.726,4.056,3.629,8.501,6.167,12.428c2.372,3.67,5.654,7.276,9.708,9.099
					C112.706,228.283,111.233,226.736,109.905,225.087z"/>
				<path style="fill:#FAD6BE;" d="M131.605,207.58c-1.94-8.142-7.771-14.333-13.878-19.7c-4.965-4.363-6.35-9.886-5.648-16.339
					c0.465-4.276,0.928-8.555,0.97-12.86c0.021-2.11-0.06-4.222-0.282-6.321c-0.168-1.594-0.361-3.242-1.116-4.682
					c-0.73-1.394-2.155-2.356-3.733-2.458c-1.367-0.089-2.346,0.42-3.056,1.237c0.88-0.367,1.82-0.286,2.561,0.539
					c1.038,1.155,1.283,2.791,1.43,4.275c0.88,8.901-2.837,17.54-2.062,26.442c0.168,1.923,0.542,3.823,1.264,5.618
					c0.628,1.564,1.496,3.023,2.505,4.369c2.025,2.701,4.588,4.938,7.087,7.185c2.623,2.358,5.205,4.754,7.197,7.688
					c2.262,3.332,3.864,7.138,4.434,11.137c0.52,3.644,0.143,7.283-1.224,10.707c-0.639,1.601-1.49,3.181-2.58,4.553
					c0.468-0.321,0.915-0.684,1.334-1.094C132.097,222.712,133.262,214.53,131.605,207.58z"/>
				<path style="fill:#D27A57;" d="M131.948,207.499c-2.016-8.462-8.203-14.799-13.988-19.883c-4.531-3.981-6.288-9.077-5.53-16.037
					c0.457-4.198,0.93-8.539,0.973-12.895c0.022-2.263-0.071-4.344-0.284-6.362c-0.154-1.454-0.345-3.264-1.154-4.809
					c-0.798-1.523-2.339-2.537-4.022-2.646c-2.52-0.161-4.186,1.521-4.961,5.009c-0.525,2.359-1.342,4.732-2.132,7.027
					c-0.381,1.107-0.775,2.251-1.132,3.382c-0.264,0.835-0.529,1.667-0.794,2.496c-2.813,8.807-5.47,17.126-5.155,26.466
					c0.214,6.35,1.676,12.751,4.346,19.025c1.692,3.975,3.609,8.48,6.196,12.481c1.908,2.952,5.003,6.783,9.175,8.903
					c-0.279-0.258-0.55-0.525-0.81-0.799c-0.329-0.347-0.641-0.71-0.944-1.081c-3.003-2.11-5.303-5.045-6.829-7.406
					c-2.554-3.95-4.459-8.426-6.139-12.374c-2.636-6.194-4.079-12.51-4.29-18.773c-0.31-9.218,2.328-17.481,5.122-26.228
					c0.265-0.83,0.531-1.663,0.795-2.498c0.355-1.122,0.747-2.262,1.127-3.365c0.796-2.313,1.62-4.706,2.153-7.104
					c0.668-3.003,1.961-4.468,3.95-4.468c0.091,0,0.183,0.003,0.277,0.009c1.439,0.094,2.758,0.963,3.443,2.27
					c0.747,1.425,0.923,3.088,1.078,4.555c0.21,1.991,0.302,4.046,0.28,6.281c-0.042,4.321-0.513,8.644-0.968,12.826
					c-0.774,7.109,1.112,12.553,5.766,16.642c5.702,5.01,11.798,11.248,13.768,19.517c0.505,2.12,0.722,4.13,0.715,6.015
					c0.018,0.166,0.04,0.332,0.055,0.498c0.132,1.474,0.14,2.962,0.011,4.437c-0.019,0.212-0.041,0.424-0.065,0.635
					c0.063-0.257,0.123-0.515,0.178-0.777C132.892,214.953,132.82,211.159,131.948,207.499z"/>
			</g>
			<path style="fill:#D27A57;" d="M120.941,164.891c0.625-4.027,1.756-7.909,3.376-11.646c1.491-3.441,3.292-6.735,5.037-10.051
				c1.089-2.07,2.161-4.155,3.119-6.29c1.668-4.021,3.024-8.265,3.224-12.603c0.057-1.246,0.047-2.604-0.275-3.851
				c0.002-0.002,0.004-0.005,0.007-0.007c-0.083-0.28-0.17-0.56-0.258-0.838c-0.003,0.012-0.007,0.025-0.01,0.037
				c-0.088-0.222-0.189-0.438-0.305-0.647c-0.286-0.517-0.689-0.919-1.156-1.201c0.07,0.156,0.138,0.312,0.203,0.469
				c0.216,0.52,0.424,1.056,0.543,1.608c0.256,1.18,0.182,2.353,0.036,3.525c0.061,4.66-1.537,9.294-3.281,13.541
				c-1.283,3.123-2.782,6.151-4.314,9.158c-1.483,2.91-3.073,5.791-4.261,8.838c-1.123,2.881-1.659,5.915-2.004,8.977
				c-0.298,2.647-0.417,5.315-0.302,7.977c0.011,0.046,0.023,0.092,0.034,0.138C120.37,169.636,120.575,167.247,120.941,164.891z"/>
			<path style="fill:#D27A57;" d="M134.592,171.003c0.257-3.721,1.007-7.403,1.886-11.021c0.991-4.078,2.192-8.1,3.322-12.14
				c1.152-4.117,2.113-8.294,3.146-12.442c0.705-2.83,1.599-5.62,2.252-8.462c0.067-0.401,0.131-0.803,0.191-1.205
				c0.09-0.601,0.182-1.204,0.25-1.81c0.043-0.589,0.079-1.178,0.1-1.769c-0.007-1.632-0.261-3.319-1.026-4.769
				c-0.254-0.481-0.591-0.936-1.001-1.303c0.21,0.269,0.404,0.552,0.572,0.853c0.65,1.164,0.888,2.503,0.749,3.824
				c-0.091,0.868-0.266,1.733-0.441,2.587c-0.156,0.76-0.334,1.515-0.523,2.267c-0.011,0.077-0.022,0.153-0.034,0.23
				c-0.205,1.382-0.446,2.76-0.717,4.131c-1.084,5.498-2.632,10.891-4.125,16.288c-1.47,5.315-2.901,10.657-3.858,16.093
				c-0.685,3.889-1.101,7.863-0.9,11.809c0.033,0.123,0.068,0.244,0.102,0.367C134.484,173.35,134.512,172.165,134.592,171.003z"/>
			<path style="fill:#D27A57;" d="M152.043,128.668c-0.079-0.893-0.211-1.823-0.454-2.718c0.002,0.023,0.004,0.047,0.006,0.07
				c0.255,3.509-0.101,7.027-0.686,10.486c-0.594,3.51-1.42,6.974-2.091,10.468c-0.691,3.597-1.511,7.167-2.201,10.764
				c-0.349,1.815-0.66,3.639-0.887,5.474c-0.227,1.829-0.291,3.675-0.255,5.516c0.018,0.903,0.06,1.805,0.118,2.705
				c0.013-0.615,0.031-1.23,0.064-1.845c0.666-12.272,5.274-23.947,6.334-36.141c0.01-0.121,0.021-0.242,0.03-0.363
				C152.139,131.615,152.173,130.142,152.043,128.668z"/>
			<path style="fill:#D27A57;" d="M119.255,175.014c0.726,0.165,1.47,0.228,2.215,0.248c0.384-0.035,0.768-0.069,1.152-0.096
				c2.879-0.206,5.774-0.263,8.658-0.14c3.05,0.13,6.157,0.278,9.166,0.85c1.762,0.153,3.518,0.389,5.24,0.792
				c0.563,0.132,1.122,0.286,1.674,0.457c-1.83-0.966-3.832-1.659-5.845-2.09c-2.742-0.587-5.552-0.763-8.346-0.901
				c-2.9-0.143-5.787-0.175-8.686,0.012c-1.538,0.099-3.07,0.249-4.596,0.465c-0.459,0.065-0.916,0.136-1.376,0.184
				C118.755,174.884,119.004,174.957,119.255,175.014z"/>
		</g>
		<g>
			<g>
				<path style="fill:#FAD6BE;" d="M165.205,208.568c0.374-3.588,1.353-7.062,2.374-10.511c1.037-3.503,2.147-6.993,2.898-10.573
					c0.369-1.759,0.658-3.543,0.786-5.337c0.133-1.876,0.051-3.731-0.099-5.603c-0.622-7.789-1.671-15.543-2.679-23.289
					c-0.49-3.763-1.148-7.523-1.095-11.331c0.03-2.171,0.188-4.601,1.322-6.512c0.452-0.761,1.072-1.374,1.879-1.694
					c0.423,0.11,0.808,0.349,1.087,0.743c0.064,0.091,0.219,0.064,0.219-0.059c-0.001-0.705-0.07-1.413-0.199-2.107
					c-0.037-0.198-0.08-0.399-0.13-0.599c-0.039-1.008-0.028-2.017,0.061-3.027c0.156-1.772,0.515-3.7,1.556-5.187
					c0.48-0.687,1.165-1.271,2.003-1.443c0.92-0.189,1.749,0.079,2.5,0.618c0.088,0.063,0.173,0.124,0.257,0.184
					c-0.003-0.08-0.008-0.161-0.009-0.241c-0.039-1.768,0.188-3.631,1.023-5.214c0.382-0.725,0.95-1.396,1.681-1.786
					c0.901-0.48,1.928-0.558,2.918-0.338c2.041,0.454,3.99,2.005,4.812,3.936c0.064,0.152,0.109,0.298,0.144,0.445
					c0.088-0.222,0.189-0.438,0.304-0.647c0.896-1.619,2.925-2.123,4.547-1.265c1.113,0.589,1.858,1.643,2.543,2.665
					c0.973,1.451,1.928,2.914,2.841,4.404c0.883,1.439,1.687,2.929,2.611,4.343c0.873,1.335,1.836,2.61,2.816,3.868
					c1.992,2.555,4.035,5.071,5.61,7.914c1.624,2.931,3.567,5.707,4.823,8.829c1.282,3.183,1.859,6.595,2.484,9.952
					c0.669,3.595,1.359,7.186,1.966,10.792c0.326,1.942,0.632,3.896,0.899,5.857c0.069-0.013,0.139-0.016,0.199-0.004
					c0.292,0.054,0.495,0.291,0.552,0.568c0.169,0.819,0.438,1.614,0.593,2.439c0.152,0.808,0.286,1.619,0.404,2.433
					c0.233,1.599,0.415,3.206,0.545,4.817c0.26,3.218,0.314,6.455,0.135,9.679c-0.358,6.425-1.628,12.819-3.996,18.812
					c-1.191,3.016-2.65,5.93-4.379,8.673c-0.217,0.345-0.439,0.686-0.664,1.024c0.917,3.321,9.619,34.836,14.256,51.829
					c-1.781,1.832-3.928,3.287-6.172,4.491c-3.939,2.114-8.227,3.459-12.614,4.254c-4.367,0.791-8.836,1.07-13.268,0.836
					c-4.427-0.234-8.863-0.987-13.04-2.5c-0.478-0.173-0.952-0.357-1.423-0.552l-4.632-49.719c-2.503-1.498-4.793-3.394-6.656-5.639
					c-0.981-1.182-1.859-2.453-2.539-3.833c-0.722-1.465-1.185-3.022-1.531-4.615C164.959,215.803,164.829,212.169,165.205,208.568z
					"/>
				<path style="fill:#FAD6BE;" d="M165.205,208.568c0.374-3.588,1.353-7.062,2.374-10.511c1.037-3.503,2.147-6.993,2.898-10.573
					c0.369-1.759,0.658-3.543,0.786-5.337c0.133-1.876,0.051-3.731-0.099-5.603c-0.622-7.789-1.671-15.543-2.679-23.289
					c-0.49-3.763-1.148-7.523-1.095-11.331c0.03-2.171,0.188-4.601,1.322-6.512c0.452-0.761,1.072-1.374,1.879-1.694
					c0.423,0.11,0.808,0.349,1.087,0.743c0.064,0.091,0.219,0.064,0.219-0.059c-0.001-0.705-0.07-1.413-0.199-2.107
					c-0.037-0.198-0.08-0.399-0.13-0.599c-0.039-1.008-0.028-2.017,0.061-3.027c0.156-1.772,0.515-3.7,1.556-5.187
					c0.48-0.687,1.165-1.271,2.003-1.443c0.92-0.189,1.749,0.079,2.5,0.618c0.088,0.063,0.173,0.124,0.257,0.184
					c-0.003-0.08-0.008-0.161-0.009-0.241c-0.039-1.768,0.188-3.631,1.023-5.214c0.382-0.725,0.95-1.396,1.681-1.786
					c0.901-0.48,1.928-0.558,2.918-0.338c2.041,0.454,3.99,2.005,4.812,3.936c0.064,0.152,0.109,0.298,0.144,0.445
					c0.088-0.222,0.189-0.438,0.304-0.647c0.896-1.619,2.925-2.123,4.547-1.265c1.113,0.589,1.858,1.643,2.543,2.665
					c0.973,1.451,1.928,2.914,2.841,4.404c0.883,1.439,1.687,2.929,2.611,4.343c0.873,1.335,1.836,2.61,2.816,3.868
					c1.992,2.555,4.035,5.071,5.61,7.914c1.624,2.931,3.567,5.707,4.823,8.829c1.282,3.183,1.859,6.595,2.484,9.952
					c0.669,3.595,1.359,7.186,1.966,10.792c0.326,1.942,0.632,3.896,0.899,5.857c0.069-0.013,0.139-0.016,0.199-0.004
					c0.292,0.054,0.495,0.291,0.552,0.568c0.169,0.819,0.438,1.614,0.593,2.439c0.152,0.808,0.286,1.619,0.404,2.433
					c0.233,1.599,0.415,3.206,0.545,4.817c0.26,3.218,0.314,6.455,0.135,9.679c-0.358,6.425-1.628,12.819-3.996,18.812
					c-1.191,3.016-2.65,5.93-4.379,8.673c-0.217,0.345-0.439,0.686-0.664,1.024c0.917,3.321,9.619,34.836,14.256,51.829
					c-1.781,1.832-3.928,3.287-6.172,4.491c-3.939,2.114-8.227,3.459-12.614,4.254c-4.367,0.791-8.836,1.07-13.268,0.836
					c-4.427-0.234-8.863-0.987-13.04-2.5c-0.478-0.173-0.952-0.357-1.423-0.552l-4.632-49.719c-2.503-1.498-4.793-3.394-6.656-5.639
					c-0.981-1.182-1.859-2.453-2.539-3.833c-0.722-1.465-1.185-3.022-1.531-4.615C164.959,215.803,164.829,212.169,165.205,208.568z
					"/>
				<path style="fill:#FAD6BE;" d="M226.007,278.087c-0.436-1.264-0.875-2.525-1.294-3.79c-0.904-2.729-1.805-5.459-2.656-8.206
					c-0.87-2.808-1.71-5.624-2.574-8.434c-0.835-2.715-1.691-5.41-2.358-8.173c-0.652-2.703-1.213-5.427-1.878-8.127
					c-0.645-2.616-1.428-5.176-2.382-7.696c-0.253-0.667-0.505-1.459-1.027-1.974c-0.412-0.407-0.955-0.439-1.489-0.28
					c-0.412,0.123-0.802,0.323-1.176,0.533c-0.478,0.268-0.954,0.534-1.411,0.836c-0.431,0.285-0.848,0.588-1.26,0.9
					c1.869-2.457,3.591-5.026,5.117-7.708c2.436-4.281,4.233-8.818,5.411-13.601c2.429-9.861,2.199-20.069,1.362-30.118
					c-0.813-9.759-1.331-19.779-4.892-29.015c-1.798-4.663-4.441-8.928-7.189-13.081c-2.282-3.447-4.828-6.8-6.751-10.468
					c-1.473-2.811-2.82-5.699-4.579-8.349c-0.863-1.301-2.133-3.2-3.734-3.987c0.702-0.094,1.443,0.024,2.115,0.38
					c1.113,0.589,1.858,1.643,2.543,2.665c0.973,1.451,1.928,2.914,2.841,4.404c0.883,1.439,1.687,2.929,2.611,4.343
					c0.873,1.335,1.836,2.61,2.816,3.868c1.992,2.555,4.035,5.071,5.61,7.914c1.624,2.931,3.567,5.707,4.823,8.829
					c1.282,3.183,1.859,6.595,2.484,9.952c0.669,3.595,1.359,7.186,1.966,10.792c0.326,1.942,0.632,3.896,0.899,5.857
					c0.069-0.013,0.139-0.016,0.199-0.004c0.292,0.054,0.495,0.291,0.552,0.568c0.169,0.819,0.438,1.614,0.593,2.439
					c0.152,0.808,0.286,1.619,0.404,2.433c0.233,1.599,0.415,3.206,0.545,4.817c0.26,3.218,0.314,6.455,0.135,9.679
					c-0.358,6.425-1.628,12.819-3.996,18.812c-1.191,3.016-2.65,5.93-4.379,8.673c-0.217,0.345-0.439,0.686-0.664,1.024
					c0.917,3.321,9.619,34.836,14.256,51.829C227.099,277.141,226.564,277.627,226.007,278.087z"/>
				<path style="opacity:0.69;fill:#FAD6BE;" d="M165.729,219.346c0.346,1.593,0.809,3.15,1.531,4.615
					c0.68,1.38,1.558,2.651,2.539,3.833c1.864,2.244,4.153,4.141,6.656,5.639l4.632,49.719c0.47,0.195,0.945,0.379,1.423,0.552
					c4.177,1.514,8.613,2.266,13.04,2.5c0.378,0.02,0.756,0.031,1.134,0.044c-0.444-3.701-0.766-7.419-1.089-11.131
					c-0.279-3.205-0.506-6.424-0.949-9.611c-0.407-2.922-0.893-5.835-1.15-8.775c-0.436-4.988-0.278-10.434,2.951-14.537
					c2.507-3.186,6.175-5.18,9.573-7.261c3.061-1.874,6.194-3.948,8.204-6.967c-0.435-1.576-0.74-2.682-0.875-3.171
					c0.225-0.338,0.447-0.679,0.664-1.024c1.729-2.744,3.188-5.657,4.379-8.673c2.368-5.993,3.638-12.387,3.996-18.812
					c0.18-3.224,0.125-6.461-0.135-9.679c-0.13-1.611-0.313-3.217-0.545-4.817c-0.118-0.814-0.253-1.625-0.404-2.433
					c-0.155-0.825-0.424-1.62-0.593-2.439c-0.057-0.278-0.26-0.514-0.552-0.568c-0.06-0.011-0.13-0.009-0.199,0.004
					c-0.267-1.961-0.573-3.915-0.899-5.857c-0.606-3.606-1.297-7.197-1.966-10.792c-0.625-3.357-1.203-6.769-2.484-9.952
					c-0.594-1.475-1.341-2.872-2.134-4.245c-0.409,0.419-0.789,0.869-1.126,1.357c-1.096,1.586-1.76,3.423-2.169,5.296
					c-0.884,4.049-0.701,8.254-0.692,12.371c0.004,2.136-0.011,4.285-0.306,6.404c-0.017,0.125-0.193,0.098-0.227,0
					c-0.868-2.534-1.295-5.187-1.736-7.821c-0.447-2.667-0.964-5.296-1.796-7.873c-1.664-5.156-4.21-9.948-6.578-14.801
					c-1.154-2.366-2.441-4.662-3.534-7.059c-1.086-2.382-2.025-4.85-2.551-7.421c-0.204-0.996-0.333-2.005-0.433-3.016
					c-0.081-0.814-0.126-1.655,0.044-2.461c0.152-0.72,0.524-1.402,1.227-1.703c0.52-0.223,1.058-0.173,1.566,0.06
					c0.542,0.249,1.008,0.656,1.422,1.084c-0.602-0.864-1.279-1.696-2.222-2.195c-1.622-0.858-3.651-0.355-4.547,1.265
					c-0.116,0.209-0.216,0.426-0.304,0.647c-0.035-0.147-0.08-0.293-0.144-0.445c-0.258-0.605-0.626-1.173-1.073-1.681
					c-1.724,1.83-2.099,4.6-2.032,7.055c0.097,3.541,0.998,7.05,2.066,10.409c0.891,2.801,1.99,5.517,3.087,8.24
					c1.535,3.809,3.411,7.472,4.732,11.368c1.286,3.791,2.222,8.071,0.981,12.001c-0.3,0.948-0.727,1.852-1.265,2.687
					c-0.446,0.692-1.064,1.617-1.926,1.82c-0.772,0.181-1.333-0.464-1.671-1.073c-0.539-0.972-0.837-2.099-1.069-3.178
					c-0.496-2.307-0.635-4.673-0.92-7.011c-0.145-1.188-0.322-2.375-0.611-3.538c-0.335-1.346-0.708-2.683-1.093-4.016
					c-1.555-5.391-3.392-10.695-4.959-16.083c-0.383-1.318-0.778-2.627-1.197-3.934c-0.408-1.273-0.804-2.551-1.136-3.846
					c-0.638-2.484-1.114-5.152-0.844-7.724c0.167-1.593,0.601-3.191,1.33-4.62c0.12-0.236,0.252-0.47,0.395-0.699
					c-0.178,0.063-0.354,0.135-0.524,0.225c-0.731,0.39-1.299,1.062-1.681,1.786c-0.835,1.582-1.061,3.446-1.023,5.214
					c0.002,0.08,0.006,0.161,0.009,0.241c-0.084-0.06-0.169-0.121-0.257-0.184c-0.045-0.032-0.091-0.06-0.137-0.091
					c0.13,1.273,0.359,2.54,0.617,3.78c0.284,1.366,0.617,2.721,0.94,4.078c0.323,1.356,0.595,2.72,0.882,4.084
					c1.263,6.014,3.039,11.908,4.222,17.94c0.263,1.342,0.499,2.655,0.579,4.016c0.077,1.308,0.108,2.619,0.104,3.93
					c-0.004,1.456-0.049,2.916-0.201,4.365c-0.113,1.086-0.241,2.268-0.724,3.264c-0.299,0.616-0.848,1.041-1.508,0.627
					c-1.352-0.849-1.696-2.75-1.879-4.198c-0.14-1.11-0.182-2.229-0.241-3.344c-0.063-1.188-0.223-2.347-0.425-3.52
					c-0.519-3.017-1.216-5.999-1.991-8.96c-0.561-2.143-1.208-4.254-1.847-6.374c-0.902-2.992-1.758-6.001-2.46-9.047
					c-0.608-2.638-1.167-5.355-1.274-8.074c-0.417,1.133-0.609,2.369-0.712,3.538c-0.089,1.01-0.1,2.019-0.061,3.027
					c0.05,0.2,0.093,0.401,0.13,0.599c0.106,0.568,0.169,1.146,0.189,1.724c0.255,1.731,0.468,3.469,0.678,5.206
					c0.368,3.046,0.775,6.082,1.304,9.106c0.263,1.506,0.549,3.007,0.82,4.512c0.202,1.125,0.357,2.26,0.588,3.38
					c0.376,1.824,0.828,3.633,1.046,5.485c0.102,0.865,0.167,1.754,0.041,2.62c-0.105,0.722-0.435,1.489-1.036,1.936
					c-1.214,0.902-1.79-1.803-1.965-2.485c-0.089-0.347-0.172-0.697-0.267-1.043c-0.161-0.589-0.275-1.191-0.423-1.783
					c-0.352-1.403-0.775-2.788-1.255-4.152c-0.436-1.238-0.939-2.451-1.403-3.678c-0.416-1.1-0.829-2.201-1.218-3.31
					c-0.449-1.279-0.87-2.572-1.233-3.88c0.22,2.449,0.607,4.885,0.924,7.322c1.008,7.746,2.057,15.5,2.679,23.289
					c0.15,1.872,0.232,3.727,0.099,5.603c-0.128,1.794-0.417,3.578-0.786,5.337c-0.751,3.58-1.861,7.07-2.898,10.573
					c-1.021,3.449-2,6.923-2.374,10.511C164.829,212.169,164.959,215.803,165.729,219.346z M172.401,188.054
					c2.566-6.019,8.251-9.304,14.573-10.15c2.863-0.383,5.761-0.303,8.63-0.028c1.573,0.15,3.206,0.084,4.73,0.546
					c1.176,0.356,2.296,1.074,2.867,2.161c1.408,2.679-1.026,6.077-2.691,8.096c-4.982,6.04-11.659,10.636-16.078,17.143
					c-1.795,2.643-3.093,5.561-4.429,8.45c-1.066,2.303-2.021,5.088-4.073,6.704c-0.561,0.442-1.248,0.792-1.96,0.733
					c-1.178-0.098-1.967-1.229-2.503-2.282c-1.472-2.886-2.324-6.077-2.678-9.393C168.015,202.773,169.541,194.763,172.401,188.054z
					"/>
				<path style="opacity:0.69;fill:#FAD6BE;" d="M165.205,208.568c0.031-0.295,0.067-0.589,0.106-0.883
					c0.21,2.84,0.62,5.677,1.403,8.415c0.829,2.898,2.106,5.744,4.154,7.991c2.584,2.835,6.167,4.068,9.914,4.402
					c4.109,0.366,8.333-0.094,12.302,1.254c-0.976,1.756-2.879,2.599-4.493,3.665c-0.82,0.542-1.6,1.159-2.202,1.943
					c-0.613,0.799-1.012,1.756-1.272,2.723c-0.512,1.904-0.514,3.915-0.417,5.87c0.11,2.231,0.332,4.441,0.628,6.654
					c0.693,5.169,1.527,10.318,2.158,15.495c0.265,2.18,0.442,4.368,0.706,6.548c0.228,1.884,0.491,3.764,0.672,5.654
					c0.183,1.916,0.297,3.85,0.181,5.774c-0.027,0.451-0.068,0.904-0.126,1.356c-2.178-0.406-4.326-0.972-6.408-1.727
					c-0.478-0.173-0.952-0.357-1.423-0.552l-4.632-49.719c-2.503-1.498-4.793-3.394-6.656-5.639
					c-0.981-1.182-1.859-2.453-2.539-3.833c-0.722-1.465-1.185-3.022-1.531-4.615C164.959,215.803,164.829,212.169,165.205,208.568z
					"/>
				<path style="fill:#D27A57;" d="M164.855,208.531c0.374-3.584,1.343-7.047,2.387-10.574c0.172-0.579,0.345-1.157,0.518-1.735
					c0.86-2.869,1.749-5.836,2.373-8.81c0.41-1.953,0.665-3.684,0.779-5.29c0.144-2.023,0.023-4.029-0.099-5.55
					c-0.569-7.118-1.51-14.327-2.42-21.298l-0.257-1.974c-0.093-0.717-0.193-1.435-0.292-2.152
					c-0.418-3.009-0.849-6.121-0.806-9.228c0.033-2.328,0.221-4.75,1.372-6.687c0.53-0.893,1.22-1.512,2.052-1.842l0.107-0.042
					l0.111,0.029c0.316,0.082,0.602,0.223,0.847,0.416c-0.027-0.477-0.086-0.957-0.175-1.434c-0.038-0.202-0.08-0.397-0.126-0.578
					l-0.01-0.072c-0.043-1.106-0.022-2.111,0.063-3.072c0.132-1.496,0.443-3.679,1.618-5.358c0.595-0.851,1.384-1.414,2.221-1.586
					c0.836-0.171,1.663-0.013,2.462,0.469c0.009-1.954,0.367-3.614,1.067-4.941c0.321-0.608,0.898-1.438,1.827-1.933
					c0.931-0.495,2.023-0.624,3.16-0.371c2.065,0.46,4,1.979,4.918,3.833c0.995-1.705,3.164-2.291,4.978-1.332
					c1.156,0.612,1.923,1.664,2.671,2.781c1.131,1.687,2.036,3.09,2.849,4.416c0.353,0.576,0.699,1.167,1.033,1.74
					c0.502,0.861,1.021,1.751,1.573,2.594c0.904,1.383,1.923,2.719,2.799,3.844l0.605,0.774c1.773,2.265,3.606,4.606,5.035,7.186
					c0.509,0.919,1.061,1.84,1.594,2.732c1.169,1.953,2.377,3.973,3.248,6.136c1.203,2.989,1.796,6.197,2.37,9.3l0.133,0.719
					c0.135,0.723,0.27,1.445,0.405,2.168c0.529,2.825,1.077,5.746,1.562,8.63c0.342,2.034,0.624,3.861,0.861,5.574
					c0.394,0.093,0.701,0.415,0.787,0.834c0.077,0.371,0.177,0.749,0.275,1.114c0.115,0.432,0.234,0.878,0.319,1.332
					c0.15,0.8,0.287,1.624,0.407,2.447c0.234,1.61,0.418,3.238,0.548,4.839c0.266,3.291,0.312,6.564,0.136,9.727
					c-0.376,6.757-1.729,13.123-4.02,18.922c-1.221,3.09-2.704,6.027-4.409,8.732c-0.19,0.302-0.384,0.601-0.58,0.897
					c1.325,4.797,9.63,34.88,14.158,51.473c-0.051,0.054-0.101,0.109-0.152,0.162c-0.136,0.143-0.279,0.28-0.42,0.418
					c-4.553-16.691-13.123-47.728-14.308-52.021l-0.043-0.155l0.089-0.134c0.223-0.336,0.443-0.675,0.659-1.017
					c1.682-2.667,3.145-5.566,4.349-8.615c2.263-5.729,3.599-12.021,3.972-18.702c0.174-3.132,0.129-6.372-0.134-9.631
					c-0.128-1.586-0.311-3.199-0.543-4.794c-0.118-0.814-0.254-1.627-0.402-2.419c-0.08-0.428-0.196-0.861-0.308-1.28
					c-0.1-0.375-0.203-0.762-0.284-1.153c-0.025-0.122-0.11-0.263-0.272-0.293c-0.006-0.001-0.031-0.003-0.066,0.004l-0.367,0.072
					l-0.05-0.37c-0.243-1.791-0.537-3.703-0.898-5.846c-0.484-2.878-1.031-5.795-1.559-8.617c-0.135-0.723-0.271-1.446-0.405-2.169
					l-0.134-0.72c-0.567-3.069-1.154-6.242-2.331-9.165c-0.85-2.112-2.044-4.108-3.199-6.038c-0.536-0.896-1.09-1.822-1.605-2.752
					c-1.402-2.531-3.218-4.85-4.974-7.093l-0.606-0.775c-0.886-1.136-1.915-2.487-2.833-3.892c-0.562-0.859-1.085-1.757-1.592-2.625
					c-0.332-0.569-0.675-1.157-1.025-1.727c-0.808-1.317-1.709-2.713-2.834-4.392c-0.696-1.038-1.404-2.015-2.415-2.55
					c-1.497-0.793-3.287-0.299-4.074,1.124c-0.104,0.188-0.197,0.387-0.285,0.607l-0.411,1.031l-0.259-1.079
					c-0.035-0.147-0.075-0.271-0.126-0.39c-0.763-1.793-2.597-3.292-4.564-3.73c-0.97-0.216-1.895-0.111-2.675,0.305
					c-0.602,0.32-1.147,0.902-1.535,1.639c-0.696,1.319-1.026,3.015-0.982,5.042c0.001,0.058,0.004,0.116,0.006,0.174l0.032,0.778
					l-0.844-0.6c-0.74-0.531-1.467-0.715-2.223-0.559c-0.659,0.135-1.293,0.597-1.785,1.299c-1.078,1.54-1.368,3.6-1.493,5.016
					c-0.081,0.921-0.101,1.885-0.062,2.946c0.046,0.185,0.088,0.381,0.126,0.584c0.135,0.722,0.204,1.452,0.205,2.171
					c0,0.204-0.129,0.383-0.321,0.444c-0.2,0.064-0.417-0.009-0.538-0.181c-0.194-0.275-0.456-0.467-0.778-0.573
					c-0.636,0.282-1.172,0.786-1.597,1.501c-1.066,1.795-1.242,4.107-1.273,6.337c-0.043,3.054,0.385,6.139,0.799,9.122
					c0.1,0.719,0.2,1.439,0.293,2.158l0.257,1.974c0.911,6.979,1.854,14.197,2.424,21.333c0.124,1.546,0.247,3.586,0.099,5.656
					c-0.117,1.639-0.376,3.4-0.792,5.385c-0.63,3.003-1.524,5.985-2.388,8.868c-0.173,0.578-0.346,1.155-0.517,1.733
					c-1.035,3.494-1.994,6.923-2.362,10.447c-0.387,3.712-0.213,7.301,0.518,10.667c0.393,1.81,0.87,3.25,1.503,4.534
					c0.619,1.258,1.435,2.489,2.494,3.764c1.787,2.153,3.997,4.024,6.566,5.562l0.153,0.092l4.666,50.077
					c-0.247-0.099-0.492-0.2-0.736-0.305l-4.598-49.351c-2.573-1.561-4.79-3.452-6.593-5.624c-1.095-1.318-1.94-2.595-2.584-3.902
					c-0.659-1.337-1.154-2.829-1.559-4.696C164.637,215.981,164.459,212.317,164.855,208.531z"/>
			</g>
			<g>
				<path style="fill:#FAD6BE;" d="M219.066,220.562c-2.433,3.764-5.821,7.467-10.021,9.241c-4.087,1.726-8.939,1.237-12.183-1.93
					c-5.287-5.162-6.452-13.343-4.796-20.294c1.94-8.142,7.771-14.333,13.878-19.7c4.965-4.363,6.35-9.885,5.648-16.339
					c-0.465-4.276-0.928-8.555-0.97-12.86c-0.021-2.11,0.06-4.222,0.282-6.321c0.168-1.594,0.361-3.242,1.116-4.682
					c0.731-1.394,2.155-2.355,3.733-2.458c2.895-0.188,4.053,2.302,4.594,4.734c0.783,3.519,2.173,6.962,3.272,10.438
					c3.013,9.536,6.276,18.674,5.933,28.844c-0.22,6.522-1.767,12.905-4.318,18.899C223.508,212.19,221.605,216.635,219.066,220.562
					z"/>
				<path style="fill:#FAD6BE;" d="M213.766,225.087c3.873-4.809,6.678-10.433,8.795-16.21c2.631-7.18,4.284-14.8,4.228-22.471
					c-0.015-2.081-0.137-4.179-0.471-6.236c-0.347-2.142-0.88-4.248-1.492-6.328c-1.236-4.203-2.758-8.302-3.749-12.577
					c-0.516-2.225-0.95-4.467-1.329-6.719c-0.246-1.463-0.456-2.936-0.745-4.391c-0.365-1.835-1.002-3.69-2.324-4.898
					c2.224,0.344,3.188,2.542,3.667,4.696c0.783,3.519,2.173,6.962,3.272,10.438c3.013,9.536,6.276,18.674,5.933,28.844
					c-0.22,6.522-1.767,12.905-4.318,18.899c-1.726,4.056-3.629,8.501-6.167,12.428c-2.372,3.67-5.654,7.276-9.708,9.099
					C210.966,228.283,212.438,226.736,213.766,225.087z"/>
				<path style="fill:#FAD6BE;" d="M192.066,207.58c1.94-8.142,7.771-14.333,13.878-19.7c4.965-4.363,6.35-9.886,5.648-16.339
					c-0.465-4.276-0.928-8.555-0.97-12.86c-0.021-2.11,0.06-4.222,0.282-6.321c0.168-1.594,0.361-3.242,1.116-4.682
					c0.73-1.394,2.155-2.356,3.733-2.458c1.367-0.089,2.346,0.42,3.056,1.237c-0.88-0.367-1.819-0.286-2.561,0.539
					c-1.038,1.155-1.283,2.791-1.43,4.275c-0.88,8.901,2.837,17.54,2.062,26.442c-0.167,1.923-0.542,3.823-1.264,5.618
					c-0.628,1.564-1.495,3.023-2.505,4.369c-2.025,2.701-4.588,4.938-7.087,7.185c-2.623,2.358-5.205,4.754-7.197,7.688
					c-2.262,3.332-3.864,7.138-4.434,11.137c-0.52,3.644-0.143,7.283,1.223,10.707c0.639,1.601,1.491,3.181,2.58,4.553
					c-0.468-0.321-0.915-0.684-1.334-1.094C191.575,222.712,190.41,214.53,192.066,207.58z"/>
				<path style="fill:#D27A57;" d="M191.723,207.499c2.016-8.462,8.203-14.799,13.988-19.883c4.53-3.981,6.288-9.077,5.53-16.037
					c-0.457-4.198-0.93-8.539-0.972-12.895c-0.022-2.263,0.071-4.344,0.284-6.362c0.153-1.454,0.344-3.264,1.154-4.809
					c0.798-1.523,2.339-2.537,4.022-2.646c2.52-0.161,4.186,1.521,4.961,5.009c0.525,2.359,1.342,4.732,2.132,7.027
					c0.381,1.107,0.775,2.251,1.132,3.382c0.264,0.835,0.529,1.667,0.794,2.496c2.813,8.807,5.47,17.126,5.155,26.466
					c-0.214,6.35-1.676,12.751-4.346,19.025c-1.692,3.975-3.609,8.48-6.196,12.481c-1.908,2.952-5.003,6.783-9.175,8.903
					c0.279-0.258,0.55-0.525,0.81-0.799c0.329-0.347,0.641-0.71,0.944-1.081c3.003-2.11,5.303-5.045,6.829-7.406
					c2.554-3.95,4.459-8.426,6.139-12.374c2.636-6.194,4.079-12.51,4.29-18.773c0.31-9.218-2.328-17.481-5.122-26.228
					c-0.265-0.83-0.531-1.663-0.795-2.498c-0.355-1.122-0.747-2.262-1.127-3.365c-0.796-2.313-1.62-4.706-2.153-7.104
					c-0.668-3.003-1.961-4.468-3.95-4.468c-0.091,0-0.183,0.003-0.277,0.009c-1.439,0.094-2.758,0.963-3.443,2.27
					c-0.747,1.425-0.923,3.088-1.078,4.555c-0.21,1.991-0.302,4.046-0.28,6.281c0.042,4.321,0.513,8.644,0.968,12.826
					c0.774,7.109-1.112,12.553-5.766,16.642c-5.702,5.01-11.798,11.248-13.768,19.517c-0.505,2.12-0.722,4.13-0.715,6.015
					c-0.018,0.166-0.04,0.332-0.055,0.498c-0.132,1.474-0.14,2.962-0.011,4.437c0.019,0.212,0.041,0.424,0.065,0.635
					c-0.064-0.257-0.124-0.515-0.178-0.777C190.779,214.953,190.851,211.159,191.723,207.499z"/>
			</g>
			<path style="fill:#D27A57;" d="M202.731,164.891c-0.625-4.027-1.756-7.909-3.376-11.646c-1.491-3.441-3.292-6.735-5.037-10.051
				c-1.089-2.07-2.161-4.155-3.12-6.29c-1.667-4.021-3.024-8.265-3.224-12.603c-0.057-1.246-0.047-2.604,0.275-3.851
				c-0.002-0.002-0.004-0.005-0.007-0.007c0.083-0.28,0.17-0.56,0.258-0.838c0.003,0.012,0.007,0.025,0.01,0.037
				c0.088-0.222,0.189-0.438,0.304-0.647c0.286-0.517,0.689-0.919,1.156-1.201c-0.07,0.156-0.138,0.312-0.204,0.469
				c-0.216,0.52-0.424,1.056-0.543,1.608c-0.256,1.18-0.182,2.353-0.036,3.525c-0.061,4.66,1.537,9.294,3.281,13.541
				c1.283,3.123,2.782,6.151,4.314,9.158c1.483,2.91,3.073,5.791,4.261,8.838c1.123,2.881,1.659,5.915,2.004,8.977
				c0.298,2.647,0.417,5.315,0.302,7.977c-0.011,0.046-0.023,0.092-0.034,0.138C203.301,169.636,203.096,167.247,202.731,164.891z"
				/>
			<path style="fill:#D27A57;" d="M189.079,171.003c-0.257-3.721-1.007-7.403-1.886-11.021c-0.991-4.078-2.192-8.1-3.322-12.14
				c-1.152-4.117-2.113-8.294-3.146-12.442c-0.705-2.83-1.599-5.62-2.252-8.462c-0.066-0.401-0.131-0.803-0.192-1.205
				c-0.09-0.601-0.182-1.204-0.25-1.81c-0.043-0.589-0.079-1.178-0.1-1.769c0.007-1.632,0.261-3.319,1.026-4.769
				c0.253-0.481,0.591-0.936,1.001-1.303c-0.21,0.269-0.404,0.552-0.572,0.853c-0.65,1.164-0.888,2.503-0.749,3.824
				c0.091,0.868,0.266,1.733,0.441,2.587c0.156,0.76,0.334,1.515,0.523,2.267c0.011,0.077,0.022,0.153,0.034,0.23
				c0.204,1.382,0.446,2.76,0.716,4.131c1.084,5.498,2.632,10.891,4.125,16.288c1.47,5.315,2.9,10.657,3.858,16.093
				c0.685,3.889,1.101,7.863,0.9,11.809c-0.033,0.123-0.068,0.244-0.102,0.367C189.188,173.35,189.16,172.165,189.079,171.003z"/>
			<path style="fill:#D27A57;" d="M171.628,128.668c0.079-0.893,0.211-1.823,0.454-2.718c-0.002,0.023-0.004,0.047-0.006,0.07
				c-0.255,3.509,0.101,7.027,0.686,10.486c0.594,3.51,1.42,6.974,2.091,10.468c0.691,3.597,1.511,7.167,2.201,10.764
				c0.349,1.815,0.66,3.639,0.887,5.474c0.227,1.829,0.291,3.675,0.255,5.516c-0.018,0.903-0.06,1.805-0.118,2.705
				c-0.012-0.615-0.031-1.23-0.064-1.845c-0.666-12.272-5.274-23.947-6.334-36.141c-0.01-0.121-0.021-0.242-0.03-0.363
				C171.533,131.615,171.498,130.142,171.628,128.668z"/>
			<path style="fill:#D27A57;" d="M204.417,175.014c-0.725,0.165-1.471,0.228-2.215,0.248c-0.384-0.035-0.768-0.069-1.152-0.096
				c-2.879-0.206-5.774-0.263-8.658-0.14c-3.05,0.13-6.157,0.278-9.166,0.85c-1.762,0.153-3.518,0.389-5.24,0.792
				c-0.563,0.132-1.122,0.286-1.674,0.457c1.83-0.966,3.832-1.659,5.845-2.09c2.742-0.587,5.552-0.763,8.346-0.901
				c2.9-0.143,5.787-0.175,8.686,0.012c1.538,0.099,3.069,0.249,4.595,0.465c0.459,0.065,0.916,0.136,1.376,0.184
				C204.917,174.884,204.667,174.957,204.417,175.014z"/>
		</g>
	</g>
	<g>
		<g>
			<g>
				<g>
					<path style="fill:#B01A1F;" d="M145.115,196.174c-7.32,0.001-13.828-2.966-17.816-8.557
						c-8.658-12.137-2.753-31.716,15.794-52.376c10.9-12.142,7.071-21.057,2.222-32.346c-2.667-6.21-5.541-12.901-6.046-20.738
						c-1.352-0.164-2.714-0.453-4.079-0.87c-12.525-3.819-23.595-17.427-29.615-36.403c-4.473-14.103-14.562-28.353-29.496-26.04
						c-10.205,1.579-17.612,10.738-17.612,21.778v47.441c0,0.934-0.758,1.693-1.693,1.693c-0.934,0-1.693-0.758-1.693-1.693V40.623
						c0-12.721,8.614-23.287,20.481-25.124c11.163-1.727,25.771,4.812,33.24,28.363c5.682,17.913,15.916,30.695,27.375,34.188
						c1.017,0.31,2.028,0.54,3.029,0.69c0.128-4.718,1.168-9.847,3.616-15.516c2.579-5.977,7.081-9.392,12.079-9.163
						c3.967,0.19,7.31,2.727,8.515,6.464c0.821,2.545,1.685,9.293-7.991,16.985c-3.8,3.021-8.175,4.643-12.758,4.798
						c0.528,7.07,3.169,13.219,5.759,19.251c4.902,11.412,9.532,22.191-2.813,35.943c-25.802,28.741-18.431,44.119-15.557,48.148
						c5.166,7.244,15.555,9.189,25.857,4.833c15.342-6.487,33.72-22.25,33.904-22.407c0.708-0.61,1.779-0.531,2.387,0.176
						c0.611,0.709,0.531,1.777-0.176,2.387c-0.767,0.661-18.96,16.267-34.797,22.963
						C153.135,195.334,149.01,196.174,145.115,196.174z M154.424,57.435c-3.399,0-6.556,2.64-8.495,7.131
						c-2.275,5.27-3.241,10.006-3.349,14.374c3.852-0.126,7.487-1.497,10.736-4.08c5.564-4.424,8.134-9.394,6.877-13.296
						c-0.768-2.382-2.909-3.999-5.455-4.122C154.634,57.438,154.528,57.435,154.424,57.435z"/>
					<path style="fill:#5A0000;" d="M145.111,196.343c-7.496,0-14.038-3.144-17.949-8.628c-8.706-12.205-2.798-31.864,15.806-52.587
						c10.828-12.061,7.017-20.934,2.192-32.165c-2.715-6.323-5.519-12.852-6.05-20.654c-1.32-0.169-2.655-0.457-3.969-0.858
						c-12.578-3.835-23.69-17.486-29.726-36.515c-4.453-14.038-14.499-28.223-29.308-25.923
						c-10.122,1.566-17.469,10.655-17.469,21.611v47.441c0,1.027-0.835,1.863-1.862,1.863c-1.027,0-1.863-0.835-1.863-1.863V40.623
						c0-12.805,8.674-23.441,20.625-25.291c11.241-1.74,25.926,4.83,33.426,28.48c5.666,17.86,15.858,30.6,27.264,34.077
						c0.941,0.286,1.888,0.507,2.816,0.656c0.163-5.084,1.349-10.119,3.624-15.387c2.521-5.842,6.893-9.275,11.763-9.275
						c0.16,0,0.318,0.003,0.478,0.011c4.039,0.193,7.441,2.776,8.668,6.58c0.832,2.578,1.713,9.411-8.046,17.169
						c-3.734,2.968-8.115,4.635-12.682,4.828c0.557,6.973,3.188,13.097,5.733,19.022c4.924,11.464,9.575,22.29-2.843,36.124
						c-25.718,28.647-18.4,43.934-15.545,47.937c5.121,7.179,15.432,9.096,25.653,4.775c15.098-6.384,33.1-21.728,33.858-22.379
						c0.378-0.326,0.849-0.484,1.357-0.448c0.496,0.037,0.948,0.264,1.271,0.641c0.67,0.777,0.583,1.955-0.194,2.625
						c-0.767,0.662-18.984,16.286-34.841,22.99c-4.057,1.716-8.155,2.585-12.181,2.585l0,0
						C145.115,196.343,145.113,196.343,145.111,196.343z M79.251,18.427c13.28,0,22.318,13.263,26.486,26.407
						c6.003,18.923,17.032,32.49,29.503,36.292c1.341,0.41,2.703,0.7,4.05,0.864c0.08,0.009,0.143,0.075,0.148,0.156
						c0.503,7.806,3.313,14.349,6.031,20.676c4.874,11.349,8.724,20.309-2.249,32.532c-18.489,20.595-24.39,40.097-15.782,52.164
						c3.847,5.392,10.289,8.485,17.674,8.485c0.002,0,0.003,0,0.005,0l0,0c3.981,0,8.034-0.86,12.049-2.557
						c15.809-6.685,33.987-22.275,34.753-22.935c0.635-0.549,0.706-1.512,0.159-2.149c-0.265-0.307-0.634-0.494-1.04-0.523
						c-0.407-0.033-0.8,0.099-1.109,0.365c-0.763,0.654-18.802,16.032-33.948,22.435c-10.372,4.391-20.845,2.422-26.061-4.89
						c-2.892-4.055-10.318-19.524,15.569-48.36c12.273-13.671,7.664-24.402,2.784-35.762c-2.578-6.001-5.243-12.204-5.773-19.306
						c-0.003-0.045,0.012-0.09,0.043-0.126c0.031-0.034,0.074-0.054,0.12-0.056c4.556-0.154,8.933-1.801,12.657-4.761
						c9.595-7.627,8.746-14.29,7.936-16.801c-1.182-3.669-4.464-6.161-8.361-6.347c-0.154-0.007-0.309-0.01-0.462-0.01
						c-4.732,0-8.988,3.357-11.454,9.071c-2.286,5.293-3.464,10.348-3.602,15.453c-0.002,0.049-0.024,0.094-0.061,0.126
						c-0.037,0.032-0.084,0.044-0.134,0.037c-1.004-0.151-2.031-0.385-3.053-0.695c-11.512-3.51-21.788-16.332-27.487-34.3
						c-7.436-23.448-21.954-29.966-33.053-28.246c-11.783,1.824-20.337,12.32-20.337,24.956v47.441c0,0.84,0.683,1.523,1.523,1.523
						c0.84,0,1.523-0.683,1.523-1.523V40.623c0-11.124,7.468-20.353,17.757-21.946C77.145,18.509,78.211,18.427,79.251,18.427z
						 M142.581,79.111c-0.044,0-0.087-0.018-0.119-0.05c-0.033-0.033-0.052-0.078-0.051-0.125c0.118-4.743,1.218-9.466,3.363-14.437
						c2.015-4.667,5.392-7.396,8.971-7.225c2.619,0.126,4.819,1.789,5.61,4.238c1.281,3.972-1.311,9.012-6.932,13.481
						c-3.275,2.604-6.921,3.989-10.837,4.117C142.584,79.111,142.583,79.111,142.581,79.111z M154.425,57.605
						c-3.322,0-6.439,2.627-8.339,7.029c-2.101,4.868-3.192,9.492-3.331,14.131c3.773-0.161,7.29-1.519,10.456-4.036
						c5.507-4.377,8.056-9.279,6.822-13.112c-0.746-2.313-2.828-3.886-5.302-4.005C154.63,57.608,154.526,57.605,154.425,57.605z"/>
				</g>
				<path style="fill:#B01A1F;" d="M139.863,85.404c0.051-0.156,0.138-0.308,0.213-0.449c0.02-0.038,0.043-0.074,0.07-0.108
					c0.093-0.117,0.188-0.241,0.302-0.34c0.116-0.101,0.246-0.194,0.385-0.261c0.009-0.004,0.018-0.008,0.027-0.012
					c0.09-0.038,0.253-0.094,0.347-0.123c0.019-0.006,0.038-0.011,0.057-0.014c0.156-0.024,0.32-0.049,0.477-0.026
					c0.133,0.019,0.326,0.041,0.467,0.106c0.122,0.055,0.3,0.129,0.422,0.222c0.205,0.157,0.297,0.25,0.408,0.415
					c-0.116-0.793-0.213-1.595-0.276-2.411c-0.604,0.039-1.209,0.045-1.806,0.001c-0.518-0.038-1.075-0.059-1.595-0.183
					c0.08,1.221,0.235,2.405,0.42,3.572C139.804,85.663,139.822,85.53,139.863,85.404z"/>
				<path style="fill:#B01A1F;" d="M142.829,78.94c-0.054,0.002-0.106,0.01-0.16,0.012c0.03-1.201,0.132-2.434,0.301-3.694
					c-0.016,0.034-0.025,0.069-0.044,0.102c-0.036,0.092-0.112,0.157-0.171,0.234c-0.01,0.035-0.016,0.072-0.027,0.106
					c-0.196,0.573-0.616,1.063-1.234,1.188c-0.535,0.108-1.128-0.093-1.476-0.517c-0.205-0.25-0.361-0.56-0.397-0.884
					c-0.019-0.174-0.024-0.35-0.025-0.526c-0.166,1.286-0.266,2.544-0.3,3.773c0.835,0.143,1.679,0.257,2.526,0.279
					c0.051-0.005,0.102-0.004,0.153-0.008c0.117-0.025,0.236-0.041,0.356-0.041c0.167,0,0.333-0.006,0.499-0.012V78.94z"/>
				<path style="fill:#5A0000;" d="M141.956,79.136c-0.824,0-1.912-0.05-2.895-0.249c-0.092-0.019-0.15-0.109-0.132-0.201
					c0.019-0.09,0.101-0.149,0.201-0.132c1.305,0.267,2.809,0.258,3.592,0.229c0.002-0.001,0.004-0.001,0.007-0.001
					c0.09,0,0.165,0.072,0.169,0.163c0.004,0.094-0.069,0.172-0.162,0.175C142.521,79.129,142.256,79.136,141.956,79.136z"/>
				<path style="fill:#5A0000;" d="M142.208,82.496c-0.939,0-2.142-0.057-3.19-0.201c-0.093-0.012-0.158-0.098-0.144-0.191
					c0.012-0.093,0.105-0.158,0.191-0.144c1.305,0.176,2.861,0.216,3.816,0.186c0.002-0.001,0.004-0.001,0.007-0.001
					c0.09,0,0.165,0.072,0.169,0.163c0.004,0.094-0.069,0.172-0.162,0.175C142.689,82.492,142.458,82.496,142.208,82.496z"/>
				<path style="fill:#B01A1F;" d="M136.12,80.752c-0.041,0-0.083-0.006-0.123-0.019c-7.21-2.198-14.033-7.613-19.734-15.663
					c-0.136-0.191-0.09-0.455,0.1-0.59c0.188-0.134,0.455-0.091,0.59,0.1c5.592,7.895,12.263,13.201,19.291,15.343
					c0.224,0.068,0.349,0.304,0.281,0.528C136.469,80.635,136.302,80.752,136.12,80.752z"/>
			</g>
			<path style="fill:#B01A1F;" d="M103.969,37.723c-0.161,0-0.314-0.092-0.386-0.248c-2.966-6.54-11.491-21.501-26.509-19.173
				c-0.243,0.045-0.448-0.123-0.483-0.353c-0.036-0.231,0.122-0.447,0.353-0.483c10.994-1.705,20.974,5.465,27.411,19.658
				c0.096,0.214,0.002,0.464-0.211,0.561C104.087,37.711,104.028,37.723,103.969,37.723z"/>
		</g>
		<g>
			<g>
				<g>
					<g style="opacity:0.53;">
						<path style="fill:#C9CACC;" d="M93.602,164.517c0,0-0.184-49.955,0-58.802c0.184-8.848-1.466-10.77-9.072-16.072
							c-7.881-5.494-6.642-10.995-6.642-10.995h-0.579H58.989c0-2.988,0-7.472,0-8.834c0-2.103-1.114-1.982-1.114-1.982h-0.362
							h-1.649h-0.362c0,0-1.114-0.121-1.114,1.982c0,1.363,0,5.847,0,8.834H28.535h-0.58c0,0,1.239,5.501-6.642,10.995
							c-7.605,5.302-9.256,7.224-9.072,16.072c0.184,8.848,0,58.802,0,58.802s-1.106,12.347,13.824,16.771
							c8.702,2.578,17.706,4.366,26.811,4.385c9.112,0.019,18.192-1.805,26.899-4.385C94.707,176.864,93.602,164.517,93.602,164.517
							z M60.34,183.984H45.504c-0.787,0-1.432-0.644-1.432-1.432c0-0.787,0.644-1.431,1.432-1.431H60.34
							c0.787,0,1.432,0.644,1.432,1.431C61.772,183.339,61.128,183.984,60.34,183.984z"/>
						<path style="fill:#929496;" d="M53.015,185.797c-0.046,0-0.091,0-0.137,0c-8.151-0.017-16.932-1.453-26.846-4.39
							c-7.758-2.299-11.128-6.768-12.59-10.113c-1.584-3.627-1.326-6.756-1.323-6.787c0.001-0.489,0.182-50.044,0-58.788
							c-0.184-8.841,1.446-10.823,9.125-16.176c4.043-2.818,5.619-5.631,6.23-7.494c0.657-2.006,0.365-3.358,0.362-3.371
							l-0.034-0.151h26.463v-8.71c0-0.886,0.192-1.508,0.572-1.849c0.325-0.292,0.666-0.258,0.68-0.257l2.36-0.001
							c0.002-0.001,0.342-0.034,0.667,0.257c0.379,0.34,0.572,0.962,0.572,1.849v8.71h18.929l-0.034,0.151
							c-0.012,0.054-1.12,5.49,6.592,10.866c7.679,5.353,9.309,7.335,9.125,16.176c-0.182,8.722-0.003,58.046,0,58.794
							c0.012,0.154,0.228,3.229-1.324,6.781c-1.461,3.345-4.831,7.815-12.589,10.113C69.844,184.36,61.076,185.797,53.015,185.797z
							 M28.101,78.773c0.124,0.931,0.42,5.998-6.716,10.972c-7.589,5.291-9.2,7.248-9.019,15.967c0.182,8.748,0.002,58.306,0,58.805
							c-0.003,0.041-0.255,3.117,1.308,6.687c1.441,3.293,4.767,7.694,12.428,9.964c9.891,2.931,18.649,4.363,26.776,4.38
							c0.045,0,0.091,0,0.137,0c8.037,0,16.782-1.433,26.727-4.38c7.667-2.271,10.992-6.678,12.432-9.975
							c1.559-3.569,1.306-6.635,1.303-6.665l0-0.011c-0.002-0.5-0.182-50.058,0-58.805c0.182-8.72-1.43-10.677-9.019-15.967
							c-7.136-4.975-6.84-10.041-6.716-10.972H58.865v-8.959c0-1.006-0.263-1.457-0.484-1.659c-0.24-0.22-0.483-0.199-0.494-0.2
							l-2.385,0.001c-0.022-0.002-0.266-0.021-0.507,0.199c-0.221,0.201-0.483,0.653-0.483,1.659v8.959H28.101z M60.34,184.108
							H45.504c-0.858,0-1.556-0.698-1.556-1.556c0-0.858,0.698-1.556,1.556-1.556H60.34c0.858,0,1.556,0.698,1.556,1.556
							C61.896,183.41,61.198,184.108,60.34,184.108z M45.504,181.244c-0.721,0-1.308,0.587-1.308,1.308s0.587,1.308,1.308,1.308
							H60.34c0.721,0,1.308-0.587,1.308-1.308s-0.586-1.308-1.308-1.308H45.504z"/>
					</g>
					<path style="fill:#CACBCD;" d="M89.883,105.696c-0.212-3.159-1.043-5.981-2.469-8.387c-1.125-1.899-2.702-3.696-4.962-5.657
						c-1.285-1.114-2.343-1.985-3.331-2.742c-1.045-0.799-1.711-1.507-2.036-2.164c-0.56-1.132-0.805-2.491-0.99-3.676
						c-0.124-0.793-0.223-2.668-0.269-4.178h-7.919c0.019,2.641-0.196,5.818-0.83,6.843c-0.611,0.988-1.803,1.274-2.696,1.34
						c-0.248,0.019-0.487,0.028-0.711,0.028c-1.191,0-2.079-0.256-2.716-0.781c-1.263-1.043-3.386-1.509-4.93-1.509
						c-0.336,0-0.659,0.021-0.958,0.063c-1.493,0.208-2.432,0.929-3.186,1.509c-0.766,0.589-1.202,0.896-1.978,0.896
						c-0.077,0-0.157-0.003-0.239-0.01c-0.17-0.013-0.377-0.066-0.619-0.357c-1.161-1.397-1.208-5.609-0.963-8.021h-7.008
						c0.234,2.12,0.304,6.737-0.949,8.145c-0.202,0.228-0.407,0.325-0.683,0.325l-0.055-0.001c-0.045-0.002-0.15-0.006-0.328-0.203
						c-1.025-1.134-1.439-4.887-1.48-8.265h-8.16c-0.19,2.798-0.911,6.96-3.399,9.359c-0.909,0.877-1.869,1.711-2.798,2.517
						c-4.058,3.524-8.254,7.168-8.777,14.925c-0.303,4.495,0.089,11.255,0.503,18.411c0.416,7.183,0.846,14.61,0.564,19.922
						c-0.05,0.939-0.102,1.879-0.153,2.811c-0.564,10.211-1.05,19.029,1.076,22.511c5.08,8.32,23.91,10.426,31.74,10.942
						c0.091,0.008,2.259,0.205,3.644,0.205c0.123,0,0.239-0.001,0.348-0.005c0.108,0.003,0.225,0.005,0.347,0.005
						c1.385,0,3.559-0.197,3.62-0.203c7.858-0.52,26.684-2.626,31.763-10.944c2.126-3.482,1.64-12.298,1.076-22.507
						c-0.052-0.935-0.103-1.874-0.153-2.816c-0.283-5.312,0.148-12.739,0.563-19.921C89.795,116.951,90.186,110.191,89.883,105.696z
						"/>
					<path style="fill:#B01A1F;" d="M88.647,105.779c-0.186-2.75-0.887-5.456-2.299-7.838c-1.223-2.064-2.906-3.789-4.708-5.352
						c-1.066-0.925-2.151-1.836-3.272-2.693c-0.881-0.674-1.884-1.568-2.394-2.599c-0.621-1.254-0.889-2.661-1.104-4.033
						c-0.199-1.27-0.323-4.796-0.311-6.084h-5.461c0,0,0.358,7.064-0.969,9.209c-0.794,1.284-2.21,1.817-3.659,1.924
						c-1.501,0.111-3.104-0.041-4.307-1.034c-1.094-0.904-3.374-1.391-4.928-1.175c-2.552,0.355-3.01,2.61-5.67,2.404
						c-3.745-0.29-2.708-9.859-2.708-9.859h-4.567c0,0,1.188,10.134-2.961,9.951c-3.654-0.161-2.932-12.681-2.932-12.681h-5.71
						c0,0,0.639,8.935-3.811,13.226c-4.891,4.715-10.595,7.684-11.198,16.634c-0.603,8.95,1.633,27.689,1.068,38.316
						c-0.565,10.627-1.369,21.152,0.743,24.611c3.674,6.017,16.51,9.411,30.795,10.355c0,0,2.61,0.238,3.878,0.194
						c1.269,0.044,3.886-0.195,3.886-0.195c14.282-0.944,27.114-4.338,30.787-10.354c2.112-3.46,1.308-13.984,0.743-24.611
						C87.014,133.468,89.25,114.729,88.647,105.779z"/>
					<g>
						<path style="fill:#FFFFFF;" d="M76.36,167.472H28.838c-3.127,0-5.685-2.558-5.685-5.685v-47.522
							c0-3.127,2.558-5.685,5.685-5.685H76.36c3.127,0,5.685,2.558,5.685,5.685v47.522C82.045,164.914,79.487,167.472,76.36,167.472
							z"/>
						<g>
							<path style="fill:#CD1E25;" d="M39.55,118.395c-1.187-1.883-2.407-3.482-3.377-4.653c-0.97,1.172-2.191,2.771-3.378,4.653
								c-2.927,4.644-5.614,11.009-3.699,16.951c0.075,0.231,0.145,0.463,0.234,0.693c0.703,1.82,1.814,3.027,3.109,3.756
								c1.15,0.648,2.444,0.916,3.734,0.89c1.29,0.027,2.584-0.242,3.734-0.89c1.295-0.73,2.407-1.937,3.11-3.756
								c0.089-0.23,0.159-0.462,0.234-0.693C45.164,129.404,42.477,123.039,39.55,118.395z"/>
							<path style="fill:#FFFFFF;" d="M36.803,118.737c-0.545-0.865-1.107-1.6-1.552-2.138c-0.446,0.538-1.007,1.273-1.552,2.138
								c-1.345,2.134-2.58,5.06-1.7,7.79c0.034,0.106,0.066,0.213,0.107,0.318c0.323,0.836,0.834,1.391,1.429,1.726
								c0.528,0.298,1.123,0.421,1.716,0.409c0.593,0.012,1.188-0.111,1.716-0.409c0.596-0.335,1.106-0.89,1.429-1.726
								c0.041-0.106,0.073-0.212,0.107-0.318C39.383,123.797,38.148,120.871,36.803,118.737z"/>
							<g>
								<g>
									<g>
										<g>
											<rect x="48.11" y="140.998" style="fill:#231F20;" width="1.446" height="5.461"/>
											<rect x="49.924" y="140.998" style="fill:#231F20;" width="0.723" height="5.461"/>
											<rect x="51.015" y="140.998" style="fill:#231F20;" width="0.361" height="5.461"/>
											<rect x="51.744" y="140.998" style="fill:#231F20;" width="0.648" height="5.461"/>
											<rect x="52.76" y="140.998" style="fill:#231F20;" width="0.324" height="5.461"/>
											<rect x="53.452" y="140.998" style="fill:#231F20;" width="0.162" height="5.461"/>
											<rect x="53.982" y="140.998" style="fill:#231F20;" width="1.446" height="5.461"/>
											<rect x="59.854" y="140.998" style="fill:#231F20;" width="4.32" height="5.461"/>
											<rect x="55.796" y="140.998" style="fill:#231F20;" width="0.723" height="5.461"/>
											<rect x="56.887" y="140.998" style="fill:#231F20;" width="0.361" height="5.461"/>
											<rect x="57.617" y="140.998" style="fill:#231F20;" width="0.648" height="5.461"/>
											<rect x="58.632" y="140.998" style="fill:#231F20;" width="0.324" height="5.461"/>
											<rect x="59.325" y="140.998" style="fill:#231F20;" width="0.162" height="5.461"/>
										</g>
										<g>
											<rect x="64.436" y="140.998" style="fill:#231F20;" width="2.11" height="5.461"/>
											<rect x="66.914" y="140.998" style="fill:#231F20;" width="0.723" height="5.461"/>
											<rect x="68.005" y="140.998" style="fill:#231F20;" width="0.361" height="5.461"/>
											<rect x="68.735" y="140.998" style="fill:#231F20;" width="0.648" height="5.461"/>
											<rect x="69.75" y="140.998" style="fill:#231F20;" width="0.324" height="5.461"/>
											<rect x="70.442" y="140.998" style="fill:#231F20;" width="0.162" height="5.461"/>
											<rect x="70.973" y="140.998" style="fill:#231F20;" width="1.446" height="5.461"/>
											<rect x="76.845" y="140.998" style="fill:#231F20;" width="2.16" height="5.461"/>
											<rect x="72.786" y="140.998" style="fill:#231F20;" width="0.723" height="5.461"/>
											<rect x="73.877" y="140.998" style="fill:#231F20;" width="0.361" height="5.461"/>
											<rect x="74.607" y="140.998" style="fill:#231F20;" width="0.648" height="5.461"/>
											<rect x="75.623" y="140.998" style="fill:#231F20;" width="0.324" height="5.461"/>
											<rect x="76.315" y="140.998" style="fill:#231F20;" width="0.162" height="5.461"/>
										</g>
									</g>
									<g>
										<rect x="48.471" y="148.118" style="fill:#5F6062;" width="30.172" height="1.244"/>
										<rect x="48.471" y="150.053" style="fill:#5F6062;" width="30.172" height="1.244"/>
										<g>
											<rect x="48.471" y="151.989" style="fill:#B6B8BA;" width="18.443" height="1.244"/>
											<rect x="67.644" y="151.989" style="fill:#B6B8BA;" width="11" height="1.244"/>
										</g>
									</g>
									<g>
										<g>
											<rect x="48.471" y="154.201" style="fill:#B6B8BA;" width="16.34" height="0.773"/>
											<rect x="48.471" y="155.404" style="fill:#B6B8BA;" width="16.34" height="0.773"/>
											<g>
												<rect x="48.471" y="156.607" style="fill:#B6B8BA;" width="9.988" height="0.773"/>
												<rect x="58.854" y="156.607" style="fill:#B6B8BA;" width="5.957" height="0.773"/>
											</g>
										</g>
										<g>
											<rect x="65.34" y="154.201" style="fill:#B6B8BA;" width="13.304" height="0.773"/>
											<rect x="65.34" y="155.404" style="fill:#B6B8BA;" width="13.304" height="0.773"/>
											<g>
												<rect x="65.34" y="156.607" style="fill:#B6B8BA;" width="8.132" height="0.773"/>
												<rect x="73.793" y="156.607" style="fill:#B6B8BA;" width="4.85" height="0.773"/>
											</g>
										</g>
									</g>
									<g>
										<g>
											
												<rect x="62.304" y="158.163" transform="matrix(-1 -1.224647e-16 1.224647e-16 -1 140.947 317.1002)" style="fill:#B6B8BA;" width="16.34" height="0.773"/>
											
												<rect x="62.304" y="159.367" transform="matrix(-1 -1.224647e-16 1.224647e-16 -1 140.947 319.5064)" style="fill:#B6B8BA;" width="16.34" height="0.773"/>
											<g>
												
													<rect x="68.656" y="160.57" transform="matrix(-1 -1.224647e-16 1.224647e-16 -1 147.2989 321.9126)" style="fill:#B6B8BA;" width="9.988" height="0.773"/>
												
													<rect x="62.304" y="160.57" transform="matrix(-1 -1.224647e-16 1.224647e-16 -1 130.5643 321.9126)" style="fill:#B6B8BA;" width="5.957" height="0.773"/>
											</g>
										</g>
										<g>
											
												<rect x="48.471" y="158.163" transform="matrix(-1 -1.224647e-16 1.224647e-16 -1 110.2461 317.1002)" style="fill:#B6B8BA;" width="13.304" height="0.773"/>
											
												<rect x="48.471" y="159.367" transform="matrix(-1 -1.224647e-16 1.224647e-16 -1 110.2461 319.5064)" style="fill:#B6B8BA;" width="13.304" height="0.773"/>
											<g>
												
													<rect x="53.643" y="160.57" transform="matrix(-1 -1.224647e-16 1.224647e-16 -1 115.4178 321.9126)" style="fill:#B6B8BA;" width="8.132" height="0.773"/>
												
													<rect x="48.471" y="160.57" transform="matrix(-1 -1.224647e-16 1.224647e-16 -1 101.7925 321.9126)" style="fill:#B6B8BA;" width="4.85" height="0.773"/>
											</g>
										</g>
									</g>
								</g>
								<g>
									<g>
										<rect x="26.886" y="148.183" style="fill:#E2E3E4;" width="17.695" height="0.417"/>
										<rect x="26.886" y="149.097" style="fill:#E2E3E4;" width="17.695" height="0.417"/>
										<rect x="26.886" y="147.27" style="fill:#E2E3E4;" width="17.695" height="0.417"/>
										<rect x="26.886" y="150.01" style="fill:#E2E3E4;" width="17.695" height="0.417"/>
										<rect x="26.886" y="151.837" style="fill:#E2E3E4;" width="17.695" height="0.417"/>
										<rect x="26.886" y="152.751" style="fill:#E2E3E4;" width="17.695" height="0.417"/>
										<rect x="26.886" y="150.924" style="fill:#E2E3E4;" width="17.695" height="0.417"/>
										<rect x="26.886" y="153.664" style="fill:#E2E3E4;" width="17.695" height="0.417"/>
									</g>
									<g>
										<rect x="26.886" y="155.655" style="fill:#E2E3E4;" width="17.695" height="0.417"/>
										<rect x="26.886" y="156.568" style="fill:#E2E3E4;" width="17.695" height="0.417"/>
										<rect x="26.886" y="154.741" style="fill:#E2E3E4;" width="17.695" height="0.417"/>
										<rect x="26.886" y="157.481" style="fill:#E2E3E4;" width="17.695" height="0.417"/>
										<rect x="26.886" y="159.308" style="fill:#E2E3E4;" width="17.695" height="0.417"/>
										<rect x="26.886" y="160.221" style="fill:#E2E3E4;" width="17.695" height="0.417"/>
										<rect x="26.886" y="158.395" style="fill:#E2E3E4;" width="17.695" height="0.417"/>
										<rect x="26.886" y="161.135" style="fill:#E2E3E4;" width="17.695" height="0.417"/>
									</g>
								</g>
							</g>
						</g>
					</g>
					<path style="fill:#B7B8BA;" d="M88.647,105.779c-0.186-2.75-0.887-5.456-2.299-7.838c-1.223-2.064-2.906-3.789-4.708-5.352
						c-1.066-0.925-2.151-1.836-3.272-2.693c-0.881-0.674-1.884-1.568-2.394-2.599c-0.621-1.254-0.889-2.661-1.104-4.033
						c-0.199-1.27-0.323-4.796-0.311-6.084h-5.461c0,0,0.358,7.064-0.969,9.209c-0.794,1.284-2.21,1.817-3.659,1.924
						c-1.501,0.111-3.105-0.041-4.307-1.034c-1.094-0.904-3.374-1.391-4.928-1.175c-2.552,0.355-3.01,2.61-5.67,2.404
						c-3.745-0.29-2.708-9.859-2.708-9.859h-4.567c0,0,1.188,10.134-2.961,9.951c-3.654-0.161-2.932-12.681-2.932-12.681h-5.71
						c0,0,0.639,8.935-3.811,13.226c-4.891,4.715-10.595,7.684-11.198,16.634c-0.603,8.95,1.633,27.689,1.068,38.316
						c-0.565,10.627-1.369,21.152,0.743,24.611c3.674,6.017,16.51,9.411,30.795,10.355c0,0,2.61,0.238,3.878,0.194
						c1.269,0.044,3.886-0.195,3.886-0.195c14.282-0.944,27.114-4.338,30.787-10.354c2.112-3.46,1.308-13.984,0.743-24.611
						C87.014,133.468,89.25,114.729,88.647,105.779z M85.369,163.198c-1.645,7.218-11.146,10.05-27.129,11.783
						c-15.983,1.733-35.272-3.377-38.744-7.057c-3.472-3.679-1.279-14.867,0.274-24.369s-2.741-29.785-2.832-34.522
						c-0.091-4.738,0.577-10.044,6.121-14.082c5.545-4.038,7.409-8.198,7.409-8.198c0.557-2.806,4.377-1.854,4.742-0.651
						c0.365,1.203,1.184,5.289,4.119,5.361c2.368,0.059,1.911-1.442,5.782-1.397c2.246,0.025,2.828,2.42,9.062-0.781
						c4.634-2.379,7.35,2.466,11.168,2.179c3.818-0.288,5.835-4.192,8.839-0.798c3.545,4.006,6.803,5.745,10.001,10.481
						c3.198,4.736,1.005,25.688,0.639,34.002C84.456,143.464,87.014,155.98,85.369,163.198z"/>
					<path style="fill:#B7B8BA;" d="M88.647,105.779c-0.186-2.75-0.887-5.456-2.299-7.838c-1.223-2.064-2.906-3.789-4.708-5.352
						c-1.066-0.925-2.151-1.836-3.272-2.693c-0.881-0.674-1.884-1.568-2.394-2.599c-0.621-1.254-0.889-2.661-1.104-4.033
						c-0.199-1.27-0.323-4.796-0.311-6.084h-5.461c0,0,0.358,7.064-0.969,9.209c-0.794,1.284-2.21,1.817-3.659,1.924
						c-1.501,0.111-3.105-0.041-4.307-1.034c-1.094-0.904-3.374-1.391-4.928-1.175c-2.552,0.355-3.01,2.61-5.67,2.404
						c-2.067-0.16-2.676-3.147-2.808-5.792c-0.291-0.2-0.595-0.381-0.914-0.534c-0.939-0.45-2.057-0.648-3.042-0.223
						c-0.126,0.054-0.243,0.12-0.357,0.19c-0.05,2.91-0.608,6.561-3.114,6.451c-3.654-0.161-2.932-12.681-2.932-12.681h-5.71
						c0,0,0.639,8.935-3.811,13.226c-4.891,4.715-10.595,7.684-11.198,16.634c-0.603,8.95,1.633,27.689,1.068,38.316
						c-0.565,10.627-1.369,21.152,0.743,24.611c3.674,6.017,16.51,9.411,30.795,10.355c0,0,2.61,0.238,3.878,0.194
						c1.269,0.044,3.886-0.195,3.886-0.195c14.282-0.944,27.114-4.338,30.787-10.354c2.112-3.46,1.308-13.984,0.743-24.611
						C87.014,133.468,89.25,114.729,88.647,105.779z M85.369,163.198c-1.645,7.218-11.146,10.05-27.129,11.783
						c-15.983,1.733-35.272-3.377-38.744-7.057c-3.472-3.679-1.279-14.867,0.274-24.369s-2.741-29.785-2.832-34.522
						c-0.091-4.738,0.577-10.044,6.121-14.082c5.545-4.038,7.409-8.198,7.409-8.198c0.557-2.806,4.377-1.854,4.742-0.651
						c0.365,1.203,1.184,5.289,4.119,5.361c2.368,0.059,1.911-1.442,5.782-1.397c2.246,0.025,2.828,2.42,9.062-0.781
						c4.634-2.379,7.35,2.466,11.168,2.179c3.818-0.288,5.835-4.192,8.839-0.798c3.545,4.006,6.803,5.745,10.001,10.481
						c3.198,4.736,1.005,25.688,0.639,34.002C84.456,143.464,87.014,155.98,85.369,163.198z"/>
					<g>
						<g style="opacity:0.53;">
							<path style="fill:#C9CACC;" d="M35.801,65.003h-1.549h-1.807h-1.549c0,0-1.42-0.144-1.42,2.367c0,2.511,0,13.9,0,13.9h3.226
								h1.291h3.226c0,0,0-11.389,0-13.9C37.221,64.859,35.801,65.003,35.801,65.003z"/>
							<path style="fill:#929496;" d="M37.345,81.393h-7.991V67.37c0-1.024,0.23-1.751,0.683-2.16
								c0.412-0.373,0.855-0.332,0.873-0.33l4.886-0.001c0.063-0.004,0.478-0.02,0.866,0.331c0.453,0.409,0.683,1.136,0.683,2.16
								V81.393z M29.602,81.145h7.495V67.37c0-0.933-0.206-1.615-0.596-1.971c-0.328-0.3-0.673-0.273-0.688-0.272l-0.012,0.001
								h-4.904c-0.027-0.002-0.371-0.029-0.7,0.272c-0.39,0.356-0.596,1.038-0.596,1.971V81.145z"/>
						</g>
						<g>
							<path style="fill:#B7B8BA;" d="M35.953,67.403h-5.208c-0.342,0-0.62-0.277-0.62-0.62c0-0.342,0.277-0.62,0.62-0.62h5.208
								c0.342,0,0.619,0.278,0.619,0.62C36.573,67.125,36.296,67.403,35.953,67.403z"/>
							<path style="fill:#B7B8BA;" d="M35.953,69.07h-5.208c-0.342,0-0.62-0.277-0.62-0.62s0.277-0.619,0.62-0.619h5.208
								c0.342,0,0.619,0.277,0.619,0.619S36.296,69.07,35.953,69.07z"/>
							<path style="fill:#B7B8BA;" d="M35.953,70.737h-5.208c-0.342,0-0.62-0.277-0.62-0.619c0-0.342,0.277-0.62,0.62-0.62h5.208
								c0.342,0,0.619,0.277,0.619,0.62C36.573,70.46,36.296,70.737,35.953,70.737z"/>
							<path style="fill:#B7B8BA;" d="M35.953,72.405h-5.208c-0.342,0-0.62-0.278-0.62-0.619c0-0.342,0.277-0.62,0.62-0.62h5.208
								c0.342,0,0.619,0.277,0.619,0.62C36.573,72.127,36.296,72.405,35.953,72.405z"/>
							<path style="fill:#B7B8BA;" d="M35.953,74.072h-5.208c-0.342,0-0.62-0.277-0.62-0.619c0-0.342,0.277-0.62,0.62-0.62h5.208
								c0.342,0,0.619,0.278,0.619,0.62C36.573,73.795,36.296,74.072,35.953,74.072z"/>
							<path style="fill:#B7B8BA;" d="M35.953,75.74h-5.208c-0.342,0-0.62-0.278-0.62-0.62c0-0.342,0.277-0.619,0.62-0.619h5.208
								c0.342,0,0.619,0.277,0.619,0.619C36.573,75.462,36.296,75.74,35.953,75.74z"/>
							<path style="fill:#B7B8BA;" d="M35.953,77.407h-5.208c-0.342,0-0.62-0.277-0.62-0.62c0-0.342,0.277-0.619,0.62-0.619h5.208
								c0.342,0,0.619,0.277,0.619,0.619C36.573,77.129,36.296,77.407,35.953,77.407z"/>
							<path style="fill:#B7B8BA;" d="M35.953,79.074h-5.208c-0.342,0-0.62-0.278-0.62-0.62c0-0.342,0.277-0.62,0.62-0.62h5.208
								c0.342,0,0.619,0.278,0.619,0.62C36.573,78.797,36.296,79.074,35.953,79.074z"/>
						</g>
					</g>
					<g>
						<g style="opacity:0.53;">
							<path style="fill:#C9CACC;" d="M74.24,65.003h-1.549h-1.807h-1.549c0,0-1.42-0.144-1.42,2.367c0,2.511,0,13.9,0,13.9h3.226
								h1.29h3.226c0,0,0-11.389,0-13.9C75.659,64.859,74.24,65.003,74.24,65.003z"/>
							<path style="fill:#929496;" d="M75.783,81.393h-7.991V67.37c0-1.024,0.23-1.751,0.683-2.16
								c0.412-0.373,0.855-0.332,0.873-0.33l4.887-0.001c0.063-0.004,0.478-0.02,0.866,0.331c0.453,0.409,0.683,1.136,0.683,2.16
								V81.393z M68.04,81.145h7.495V67.37c0-0.933-0.206-1.615-0.596-1.971c-0.329-0.3-0.673-0.273-0.688-0.272l-0.012,0.001
								h-4.904c-0.027-0.002-0.371-0.029-0.7,0.272c-0.39,0.356-0.596,1.038-0.596,1.971V81.145z"/>
						</g>
						<g>
							<path style="fill:#B7B8BA;" d="M74.392,67.403h-5.208c-0.342,0-0.62-0.277-0.62-0.62c0-0.342,0.277-0.62,0.62-0.62h5.208
								c0.342,0,0.619,0.278,0.619,0.62C75.011,67.125,74.734,67.403,74.392,67.403z"/>
							<path style="fill:#B7B8BA;" d="M74.392,69.07h-5.208c-0.342,0-0.62-0.277-0.62-0.62s0.277-0.619,0.62-0.619h5.208
								c0.342,0,0.619,0.277,0.619,0.619S74.734,69.07,74.392,69.07z"/>
							<path style="fill:#B7B8BA;" d="M74.392,70.737h-5.208c-0.342,0-0.62-0.277-0.62-0.619c0-0.342,0.277-0.62,0.62-0.62h5.208
								c0.342,0,0.619,0.277,0.619,0.62C75.011,70.46,74.734,70.737,74.392,70.737z"/>
							<path style="fill:#B7B8BA;" d="M74.392,72.405h-5.208c-0.342,0-0.62-0.278-0.62-0.619c0-0.342,0.277-0.62,0.62-0.62h5.208
								c0.342,0,0.619,0.277,0.619,0.62C75.011,72.127,74.734,72.405,74.392,72.405z"/>
							<path style="fill:#B7B8BA;" d="M74.392,74.072h-5.208c-0.342,0-0.62-0.277-0.62-0.619c0-0.342,0.277-0.62,0.62-0.62h5.208
								c0.342,0,0.619,0.278,0.619,0.62C75.011,73.795,74.734,74.072,74.392,74.072z"/>
							<path style="fill:#B7B8BA;" d="M74.392,75.74h-5.208c-0.342,0-0.62-0.278-0.62-0.62c0-0.342,0.277-0.619,0.62-0.619h5.208
								c0.342,0,0.619,0.277,0.619,0.619C75.011,75.462,74.734,75.74,74.392,75.74z"/>
							<path style="fill:#B7B8BA;" d="M74.392,77.407h-5.208c-0.342,0-0.62-0.277-0.62-0.62c0-0.342,0.277-0.619,0.62-0.619h5.208
								c0.342,0,0.619,0.277,0.619,0.619C75.011,77.129,74.734,77.407,74.392,77.407z"/>
							<path style="fill:#B7B8BA;" d="M74.392,79.074h-5.208c-0.342,0-0.62-0.278-0.62-0.62c0-0.342,0.277-0.62,0.62-0.62h5.208
								c0.342,0,0.619,0.278,0.619,0.62C75.011,78.797,74.734,79.074,74.392,79.074z"/>
						</g>
					</g>
					<g>
						<path style="fill:#B01A1F;" d="M46.202,92.983c-0.266-0.717-1.237-0.83-1.888-0.801c-0.81,0.035-1.594,0.244-2.381,0.422
							c-0.709,0.16-1.418,0.326-2.131,0.465c-1.433,0.281-3.195,0.532-4.463-0.381c-0.719-0.517-1.143-1.375-1.454-2.181
							c-0.307-0.798-0.546-1.628-0.781-2.45c-0.148-0.517-0.314-1.183-0.761-1.529c-0.54-0.418-1.168,0.088-1.416,0.581
							c-0.313,0.623-0.394,1.316-0.616,1.969c-0.305,0.896-0.719,1.782-1.277,2.549c-1.139,1.565-2.871,2.62-4.435,3.707
							c-1.546,1.074-3.063,2.233-4.061,3.861c-0.949,1.548-1.445,3.329-1.669,5.12c-0.062,0.497-0.096,0.994-0.114,1.493
							c-0.036,0.252-0.065,0.506-0.088,0.76c-0.094,1.045-0.115,2.1-0.016,3.146c0.043,0.454,0.125,0.899,0.2,1.347
							c0.052,0.314,0.111,0.736,0.384,0.944c0.581,0.443,1.062-0.272,1.211-0.758c0.249-0.811,0.434-1.646,0.667-2.463
							c0.279-0.978,0.592-1.95,1.019-2.875c0.437-0.946,1.02-1.812,1.673-2.622c1.293-1.603,2.856-2.917,4.688-3.864
							c3.578-1.849,7.697-2.438,11.642-2.968c1.802-0.242,3.771-0.58,5.208-1.784C45.799,94.292,46.448,93.645,46.202,92.983z
							 M21.08,99.276c0.478-0.763,1.077-1.42,1.754-2.012c0.349-0.305,0.712-0.59,1.083-0.865c-0.672,0.544-1.318,1.123-1.887,1.774
							c-0.649,0.744-1.169,1.581-1.617,2.46c-0.069,0.136-0.133,0.274-0.199,0.412C20.447,100.43,20.73,99.835,21.08,99.276z"/>
						<path style="fill:#B01A1F;" d="M61.721,92.541c-0.03-0.114-0.08-0.224-0.145-0.321c-0.659-0.997-2.188-1.396-3.277-1.638
							c-2.109-0.469-5.052-0.205-6.804,1.168c-0.75,0.588-1.443,1.918-0.202,2.396c0.377,0.145,0.796,0.129,1.199,0.088
							c1.368-0.139,2.58-0.799,3.897-0.99c1.393-0.202,2.764,0.379,4.157,0.341c0.437-0.012,0.947-0.112,1.138-0.505
							C61.765,92.912,61.769,92.722,61.721,92.541z"/>
						<path style="fill:#B01A1F;" d="M73.51,92.496c-0.103-0.265-0.274-0.513-0.453-0.692c-0.685-0.685-1.74-0.765-2.647-0.613
							c-1.106,0.186-2.219,0.643-3.193,1.193c-1.831,1.033,0.471,1.1,1.307,1.026c1.261-0.112,2.276,0.231,3.487,0.42
							c0.409,0.064,0.881,0.097,1.238-0.154C73.667,93.382,73.674,92.918,73.51,92.496z"/>
					</g>
					<path style="fill:#B01A1F;" d="M28.242,170.428c-0.224-0.344-1.201-0.962-1.28-1.015c-2.486-1.655-4.4-3.322-5.508-6.176
						c-0.97-2.501-1.207-5.244-1.092-7.906c0.052-1.207,0.169-2.41,0.315-3.608c0.125-1.021,0.498-2.226,0.244-3.243
						c-0.205-0.82-0.68-0.872-1.041-0.054c-0.232,0.525-0.209,1.154-0.235,1.714c-0.052,1.108-0.135,2.213-0.239,3.317
						c-0.184,1.954-0.418,3.903-0.604,5.856c-0.244,2.559-0.343,4.982,1.125,7.208c1.377,2.088,3.759,3.303,6.134,3.88
						C26.297,170.459,28.51,170.839,28.242,170.428z"/>
					<path style="fill:#B01A1F;" d="M70.609,171.896c0.021-0.012,0.043-0.023,0.064-0.036c0.224-0.139,0.543-0.354,0.598-0.611
						c0.154-0.732-1.864-0.106-2.139-0.024c-0.441,0.131-0.873,0.287-1.31,0.429c-0.789,0.257-1.633,0.393-2.449,0.531
						c-2.075,0.35-4.175,0.501-6.271,0.659c-4.285,0.324-8.625,0.542-12.913,0.154c-1.052-0.095-2.129-0.196-3.163-0.417
						c-0.833-0.179-1.64-0.462-2.47-0.654c-0.615-0.142-1.322-0.314-1.953-0.179c-1.421,0.305,1.83,1.386,2.224,1.477
						c4.361,1.006,8.831,1.346,13.296,1.133c5.105-0.236,10.17-1.094,15.166-2.132C69.663,172.15,70.152,172.055,70.609,171.896z"/>
					<path style="fill:#B01A1F;" d="M85.13,113.75c-0.411-5.592-0.027-12.79-5.206-16.435c-0.345-0.243-0.726-0.455-1.143-0.514
						c-0.418-0.06-0.879,0.057-1.151,0.379c-0.615,0.729,0.33,1.779,0.769,2.334c0.97,1.226,2.926,2.825,3.057,4.465
						c0.08,1.003-0.9,1.356-1.699,1.538c-1.764,0.403-3.59,0.379-5.388,0.361c-0.787-0.008-1.719-0.051-2.472,0.204
						c-0.789,0.268-0.796,0.717-0.243,1.16c0.676,0.542,2.106,0.403,2.9,0.34c1.699-0.134,3.444-0.092,5.143,0.07
						c2.022,0.193,3.234,1.487,3.737,3.406c0.507,1.936,0.3,3.988,0.977,5.894c0.06,0.17,0.283,0.11,0.378,0.007
						c0.323-0.349,0.372-0.883,0.397-1.336C85.219,115,85.176,114.373,85.13,113.75z"/>
					<path style="fill:#FFFFFF;" d="M20.596,91.006c-0.963,0.754-2.065,1.31-3.029,2.064c-0.96,0.75-1.726,1.692-2.409,2.695
						c-0.693,1.017-1.29,2.083-1.686,3.252c-0.38,1.121-0.602,2.296-0.685,3.476c-0.048,0.684-0.063,1.372-0.059,2.058
						c0.004,0.657,0.019,1.325,0.152,1.971c0.019,0.092,0.169,0.015,0.17-0.055c0.016-1.19,0.157-2.366,0.25-3.551
						c0.091-1.169,0.262-2.339,0.597-3.464c0.339-1.137,0.859-2.167,1.501-3.161c0.649-1.006,1.355-1.983,2.27-2.766
						c0.985-0.842,2.099-1.512,3.034-2.415C20.784,91.031,20.679,90.941,20.596,91.006z"/>
					<path style="fill:#FFFFFF;" d="M23.056,179.095c-2.186-1.087-4.29-2.503-5.876-4.38c-1.443-1.707-2.439-3.707-3.067-5.845
						c-0.35-1.194-0.518-2.403-0.737-3.624c-0.014-0.08-0.135-0.008-0.141,0.046c-0.121,1.134,0.032,2.316,0.264,3.426
						c0.231,1.106,0.618,2.176,1.106,3.194c0.986,2.056,2.446,3.892,4.294,5.238c1.213,0.883,2.612,1.588,4.004,2.14
						C22.998,179.327,23.167,179.15,23.056,179.095z"/>
					<path style="fill:#FFFFFF;" d="M92.537,165.787c-0.011-0.094-0.176-0.017-0.176,0.057c0,0.569-0.113,1.159-0.241,1.712
						c-0.126,0.544-0.28,1.08-0.465,1.607c-0.373,1.064-0.864,2.091-1.424,3.069c-1.088,1.898-2.531,3.578-4.334,4.827
						c-1.14,0.79-2.42,1.351-3.564,2.133c-0.088,0.06-0.047,0.195,0.064,0.141c1.161-0.565,2.373-1.045,3.466-1.739
						c0.969-0.615,1.848-1.377,2.626-2.219c1.54-1.668,2.737-3.697,3.516-5.827c0.226-0.618,0.418-1.257,0.523-1.908
						C92.629,167.011,92.613,166.415,92.537,165.787z"/>
					<path style="fill:#FFFFFF;" d="M92.066,98.775c-0.453-1.23-1.174-2.383-2.039-3.365c-0.248-0.281-0.513-0.547-0.789-0.801
						c-0.287-0.264-0.602-0.486-0.899-0.737c-0.063-0.054-0.215,0.068-0.152,0.131c0.296,0.294,0.556,0.637,0.823,0.959
						c0.254,0.306,0.503,0.614,0.747,0.928c0.507,0.653,0.969,1.349,1.346,2.086c0.758,1.481,1.198,3.159,1.193,4.827
						c0,0.111,0.16,0.043,0.172-0.036C92.661,101.414,92.539,100.06,92.066,98.775z"/>
				</g>
				<path style="fill:#C9CACC;" d="M56.887,68.773c0,0-0.431,0-0.73,0c-0.298,0-0.73,0.124-0.73,0.725s0,9.854,0,9.854h-6.595
					c0,0,2.778,2.537,8.055,2.466c5.276-0.071,10.027-2.466,10.027-2.466h-8.65v-9.235C58.264,70.118,58.669,68.612,56.887,68.773z"
					/>
			</g>
			<path d="M63.587,128.345l-1.285,4.632h-4.23l5.515-18.045h5.355l5.595,18.045h-4.391l-1.392-4.632H63.587z M68.165,125.293
				l-1.124-3.828c-0.321-1.071-0.643-2.41-0.91-3.481h-0.054c-0.268,1.071-0.536,2.436-0.83,3.481l-1.071,3.828H68.165z"/>
		</g>
	</g>
	<g>
		<g>
			<path style="fill:#CD1E25;" d="M207.512,174.861c-4.698-10.839-18.718-15.628-29.521-11.845
				c-5.846,2.047-10.568,6.338-14.216,11.536c-3.648-5.197-8.37-9.488-14.216-11.536c-10.803-3.783-24.823,1.007-29.521,11.845
				c-3.172,7.318-2.262,15.853,0.141,23.247c5.171,15.905,17.454,28.941,32.271,36.599c3.644,1.883,7.442,3.437,11.324,4.633
				c3.882-1.195,7.68-2.749,11.324-4.633c14.817-7.658,27.1-20.694,32.271-36.599C209.774,190.714,210.684,182.179,207.512,174.861z
				"/>
			<path style="fill:#790405;" d="M163.775,239.66c-0.032,0-0.064-0.005-0.094-0.014c-3.892-1.198-7.719-2.764-11.377-4.654
				c-15.636-8.081-27.456-21.488-32.429-36.785c-3.65-11.228-2.086-18.963-0.131-23.474c2.259-5.212,6.752-9.324,12.651-11.577
				c5.633-2.152,11.928-2.313,17.27-0.443c5.332,1.867,10.077,5.663,14.11,11.284c4.033-5.622,8.778-9.417,14.11-11.284
				c5.342-1.871,11.636-1.71,17.27,0.443c5.899,2.254,10.391,6.365,12.651,11.577l0,0c1.955,4.511,3.52,12.245-0.131,23.474
				c-4.973,15.296-16.793,28.704-32.429,36.785c-3.657,1.89-7.485,3.456-11.377,4.654
				C163.839,239.655,163.807,239.66,163.775,239.66z M141.802,162.058c-3.081,0-6.222,0.568-9.177,1.697
				c-5.736,2.191-10.102,6.181-12.292,11.234c-1.911,4.41-3.436,11.983,0.152,23.021c4.921,15.137,16.626,28.41,32.113,36.414
				c3.594,1.857,7.354,3.399,11.177,4.582c3.823-1.183,7.583-2.725,11.177-4.582c15.487-8.004,27.192-21.276,32.113-36.414
				c3.589-11.038,2.064-18.611,0.152-23.021c-2.19-5.053-6.556-9.042-12.292-11.234c-5.493-2.099-11.628-2.258-16.829-0.436
				c-5.319,1.863-10.049,5.704-14.06,11.417c-0.12,0.171-0.405,0.171-0.524,0c-4.01-5.713-8.74-9.555-14.059-11.417
				C147.05,162.477,144.448,162.058,141.802,162.058z"/>
		</g>
		<path style="fill:#B01A1F;" d="M130.93,211.983c1.143,0.918,2.346,1.758,3.607,2.489c1.275,0.74,2.629,1.389,4.059,1.767
			c1.826,0.483,3.753,0.65,5.637,0.519c3.615-0.251,7.006-1.69,10.01-3.661c6.301-4.136,10.849-10.231,16.216-15.405
			c5.977-5.761,13.697-11.042,22.383-10.439c2.037,0.142,4.022,0.527,5.869,1.427c1.801,0.878,3.449,2.196,4.582,3.859
			c0.488,0.716,0.853,1.467,1.127,2.241c1.367-5.813,1.525-12.085-0.865-17.597c-4.273-9.858-17.025-14.215-26.85-10.774
			c-5.317,1.862-9.612,5.765-12.93,10.492c-3.318-4.727-7.613-8.63-12.93-10.492c-9.826-3.441-22.577,0.915-26.85,10.774
			c-2.885,6.656-2.058,14.419,0.129,21.144C125.709,203.206,128.033,207.785,130.93,211.983z"/>
		<path style="fill:#FFFFFF;" d="M142.945,169.587c-0.359-0.659-0.919-1.192-1.615-1.479c-1.458-0.602-3.175-0.205-4.594,0.318
			c-0.263,0.097-0.523,0.204-0.782,0.315c-0.007,0.003-0.013,0.006-0.02,0.009c-1.294,0.686-2.464,1.625-3.407,2.739
			c-1.05,1.24-1.835,2.751-2.074,4.37c-0.115,0.781-0.102,1.613,0.216,2.348c0.337,0.781,1.008,1.309,1.794,1.603
			c1.813,0.676,3.863-0.127,5.414-1.025c1.379-0.799,2.595-1.854,3.594-3.095c0.91-1.13,1.703-2.473,1.868-3.925
			C143.425,171.013,143.309,170.254,142.945,169.587z"/>
		<path style="fill:#FFFFFF;" d="M128.284,181.594c-0.337-0.166-0.719-0.222-1.086-0.139c-0.769,0.174-1.356,0.831-1.786,1.454
			c-0.079,0.115-0.155,0.234-0.229,0.354c-0.002,0.003-0.004,0.006-0.005,0.009c-0.331,0.653-0.538,1.374-0.603,2.101
			c-0.072,0.809,0.043,1.653,0.412,2.383c0.178,0.352,0.423,0.689,0.765,0.897c0.363,0.222,0.789,0.245,1.195,0.138
			c0.936-0.246,1.542-1.165,1.917-1.979c0.333-0.724,0.526-1.505,0.577-2.3c0.046-0.724-0.017-1.501-0.367-2.142
			C128.891,182.038,128.625,181.761,128.284,181.594z"/>
	</g>
</g>
</svg>
